  0
SECTION
  2
HEADER
  9
$ACADVER
  1
AC1021
  9
$ACADMAINTVER
 70
    25
  9
$DWGCODEPAGE
  3
ANSI_1252
  9
$LASTSAVEDBY
  1
DDB
  9
$INSBASE
 10
0.0
 20
0.0
 30
0.0
  9
$EXTMIN
 10
-222.9054439360279
 20
-269.070868185159
 30
-0.5
  9
$EXTMAX
 10
169.7056274847715
 20
300.2375000000001
 30
4.0
  9
$LIMMIN
 10
0.0
 20
0.0
  9
$LIMMAX
 10
12.0
 20
9.0
  9
$ORTHOMODE
 70
     0
  9
$REGENMODE
 70
     1
  9
$FILLMODE
 70
     1
  9
$QTEXTMODE
 70
     0
  9
$MIRRTEXT
 70
     0
  9
$LTSCALE
 40
1.0
  9
$ATTMODE
 70
     1
  9
$TEXTSIZE
 40
0.2
  9
$TRACEWID
 40
0.05
  9
$TEXTSTYLE
  7
Standard
  9
$CLAYER
  8
FemaleFrame
  9
$CELTYPE
  6
ByLayer
  9
$CECOLOR
 62
   256
  9
$CELTSCALE
 40
1.0
  9
$DISPSILH
 70
     0
  9
$DIMSCALE
 40
1.0
  9
$DIMASZ
 40
1.0
  9
$DIMEXO
 40
1.0
  9
$DIMDLI
 40
1.0
  9
$DIMRND
 40
0.0
  9
$DIMDLE
 40
0.0
  9
$DIMEXE
 40
0.5
  9
$DIMTP
 40
0.0
  9
$DIMTM
 40
0.0
  9
$DIMTXT
 40
1.0
  9
$DIMCEN
 40
0.09
  9
$DIMTSZ
 40
0.0
  9
$DIMTOL
 70
     0
  9
$DIMLIM
 70
     0
  9
$DIMTIH
 70
     0
  9
$DIMTOH
 70
     0
  9
$DIMSE1
 70
     0
  9
$DIMSE2
 70
     0
  9
$DIMTAD
 70
     0
  9
$DIMZIN
 70
     0
  9
$DIMBLK
  1

  9
$DIMASO
 70
     1
  9
$DIMSHO
 70
     1
  9
$DIMPOST
  1

  9
$DIMAPOST
  1

  9
$DIMALT
 70
     0
  9
$DIMALTD
 70
     2
  9
$DIMALTF
 40
25.4
  9
$DIMLFAC
 40
1.0
  9
$DIMTOFL
 70
     0
  9
$DIMTVP
 40
0.0
  9
$DIMTIX
 70
     0
  9
$DIMSOXD
 70
     0
  9
$DIMSAH
 70
     0
  9
$DIMBLK1
  1

  9
$DIMBLK2
  1

  9
$DIMSTYLE
  2
Standard
  9
$DIMCLRD
 70
     0
  9
$DIMCLRE
 70
     0
  9
$DIMCLRT
 70
     0
  9
$DIMTFAC
 40
1.0
  9
$DIMGAP
 40
0.5
  9
$DIMJUST
 70
     0
  9
$DIMSD1
 70
     0
  9
$DIMSD2
 70
     0
  9
$DIMTOLJ
 70
     1
  9
$DIMTZIN
 70
     0
  9
$DIMALTZ
 70
     0
  9
$DIMALTTZ
 70
     0
  9
$DIMUPT
 70
     0
  9
$DIMDEC
 70
     4
  9
$DIMTDEC
 70
     4
  9
$DIMALTU
 70
     2
  9
$DIMALTTD
 70
     2
  9
$DIMTXSTY
  7
Standard
  9
$DIMAUNIT
 70
     0
  9
$DIMADEC
 70
     0
  9
$DIMALTRND
 40
0.0
  9
$DIMAZIN
 70
     0
  9
$DIMDSEP
 70
    46
  9
$DIMATFIT
 70
     3
  9
$DIMFRAC
 70
     0
  9
$DIMLDRBLK
  1

  9
$DIMLUNIT
 70
     2
  9
$DIMLWD
 70
    -2
  9
$DIMLWE
 70
    -2
  9
$DIMTMOVE
 70
     0
  9
$DIMFXL
 40
1.0
  9
$DIMFXLON
 70
     0
  9
$DIMJOGANG
 40
0.7853981633974483
  9
$DIMTFILL
 70
     0
  9
$DIMTFILLCLR
 70
     0
  9
$DIMARCSYM
 70
     0
  9
$DIMLTYPE
  6

  9
$DIMLTEX1
  6

  9
$DIMLTEX2
  6

  9
$LUNITS
 70
     2
  9
$LUPREC
 70
     4
  9
$SKETCHINC
 40
0.1
  9
$FILLETRAD
 40
0.0
  9
$AUNITS
 70
     0
  9
$AUPREC
 70
     0
  9
$MENU
  1
.
  9
$ELEVATION
 40
0.0
  9
$PELEVATION
 40
0.0
  9
$THICKNESS
 40
0.0
  9
$LIMCHECK
 70
     0
  9
$CHAMFERA
 40
0.0
  9
$CHAMFERB
 40
0.0
  9
$CHAMFERC
 40
0.0
  9
$CHAMFERD
 40
0.0
  9
$SKPOLY
 70
     0
  9
$TDCREATE
 40
2452642.896717604
  9
$TDUCREATE
 40
2452643.063384271
  9
$TDUPDATE
 40
2457155.575915648
  9
$TDUUPDATE
 40
2457155.742582315
  9
$TDINDWG
 40
1.1661560648
  9
$TDUSRTIMER
 40
2457155.741643565
  9
$USRTIMER
 70
     1
  9
$ANGBASE
 50
0.0
  9
$ANGDIR
 70
     0
  9
$PDMODE
 70
     0
  9
$PDSIZE
 40
0.0
  9
$PLINEWID
 40
0.0
  9
$SPLFRAME
 70
     0
  9
$SPLINETYPE
 70
     6
  9
$SPLINESEGS
 70
     8
  9
$HANDSEED
  5
31C7
  9
$SURFTAB1
 70
     6
  9
$SURFTAB2
 70
     6
  9
$SURFTYPE
 70
     6
  9
$SURFU
 70
     6
  9
$SURFV
 70
     6
  9
$UCSBASE
  2

  9
$UCSNAME
  2

  9
$UCSORG
 10
0.0
 20
0.0
 30
0.0
  9
$UCSXDIR
 10
1.0
 20
0.0
 30
0.0
  9
$UCSYDIR
 10
0.0
 20
1.0
 30
0.0
  9
$UCSORTHOREF
  2

  9
$UCSORTHOVIEW
 70
     0
  9
$UCSORGTOP
 10
0.0
 20
0.0
 30
0.0
  9
$UCSORGBOTTOM
 10
0.0
 20
0.0
 30
0.0
  9
$UCSORGLEFT
 10
0.0
 20
0.0
 30
0.0
  9
$UCSORGRIGHT
 10
0.0
 20
0.0
 30
0.0
  9
$UCSORGFRONT
 10
0.0
 20
0.0
 30
0.0
  9
$UCSORGBACK
 10
0.0
 20
0.0
 30
0.0
  9
$PUCSBASE
  2

  9
$PUCSNAME
  2

  9
$PUCSORG
 10
0.0
 20
0.0
 30
0.0
  9
$PUCSXDIR
 10
1.0
 20
0.0
 30
0.0
  9
$PUCSYDIR
 10
0.0
 20
1.0
 30
0.0
  9
$PUCSORTHOREF
  2

  9
$PUCSORTHOVIEW
 70
     0
  9
$PUCSORGTOP
 10
0.0
 20
0.0
 30
0.0
  9
$PUCSORGBOTTOM
 10
0.0
 20
0.0
 30
0.0
  9
$PUCSORGLEFT
 10
0.0
 20
0.0
 30
0.0
  9
$PUCSORGRIGHT
 10
0.0
 20
0.0
 30
0.0
  9
$PUCSORGFRONT
 10
0.0
 20
0.0
 30
0.0
  9
$PUCSORGBACK
 10
0.0
 20
0.0
 30
0.0
  9
$USERI1
 70
     0
  9
$USERI2
 70
     0
  9
$USERI3
 70
     0
  9
$USERI4
 70
     0
  9
$USERI5
 70
     0
  9
$USERR1
 40
0.0
  9
$USERR2
 40
0.0
  9
$USERR3
 40
0.0
  9
$USERR4
 40
0.0
  9
$USERR5
 40
0.0
  9
$WORLDVIEW
 70
     1
  9
$SHADEDGE
 70
     3
  9
$SHADEDIF
 70
    70
  9
$TILEMODE
 70
     1
  9
$MAXACTVP
 70
    64
  9
$PINSBASE
 10
0.0
 20
0.0
 30
0.0
  9
$PLIMCHECK
 70
     0
  9
$PEXTMIN
 10
0.0
 20
0.0
 30
0.0
  9
$PEXTMAX
 10
0.0
 20
0.0
 30
0.0
  9
$PLIMMIN
 10
-0.25
 20
-0.25
  9
$PLIMMAX
 10
10.75
 20
8.25
  9
$UNITMODE
 70
     0
  9
$VISRETAIN
 70
     1
  9
$PLINEGEN
 70
     0
  9
$PSLTSCALE
 70
     1
  9
$TREEDEPTH
 70
  3020
  9
$CMLSTYLE
  2
Standard
  9
$CMLJUST
 70
     0
  9
$CMLSCALE
 40
1.0
  9
$PROXYGRAPHICS
 70
     1
  9
$MEASUREMENT
 70
     0
  9
$CELWEIGHT
370
    -1
  9
$ENDCAPS
280
     0
  9
$JOINSTYLE
280
     0
  9
$LWDISPLAY
290
     0
  9
$INSUNITS
 70
     1
  9
$HYPERLINKBASE
  1

  9
$STYLESHEET
  1

  9
$XEDIT
290
     1
  9
$CEPSNTYPE
380
     0
  9
$PSTYLEMODE
290
     1
  9
$FINGERPRINTGUID
  2
{FDEAD576-A652-11D2-9A35-0060089B3A3F}
  9
$VERSIONGUID
  2
{FBC2AE19-5C5C-49EC-81BC-71B1A3362A02}
  9
$EXTNAMES
290
     1
  9
$PSVPSCALE
 40
0.0
  9
$OLESTARTUP
290
     0
  9
$SORTENTS
280
   127
  9
$INDEXCTL
280
     0
  9
$HIDETEXT
280
     1
  9
$XCLIPFRAME
290
     0
  9
$HALOGAP
280
     0
  9
$OBSCOLOR
 70
   257
  9
$OBSLTYPE
280
     0
  9
$INTERSECTIONDISPLAY
280
     0
  9
$INTERSECTIONCOLOR
 70
   257
  9
$DIMASSOC
280
     2
  9
$PROJECTNAME
  1

  9
$CAMERADISPLAY
290
     0
  9
$LENSLENGTH
 40
50.0
  9
$CAMERAHEIGHT
 40
0.0
  9
$STEPSPERSEC
 40
2.0
  9
$STEPSIZE
 40
6.0
  9
$3DDWFPREC
 40
2.0
  9
$PSOLWIDTH
 40
0.25
  9
$PSOLHEIGHT
 40
4.0
  9
$LOFTANG1
 40
1.570796326794897
  9
$LOFTANG2
 40
1.570796326794897
  9
$LOFTMAG1
 40
0.0
  9
$LOFTMAG2
 40
0.0
  9
$LOFTPARAM
 70
     7
  9
$LOFTNORMALS
280
     1
  9
$LATITUDE
 40
37.795
  9
$LONGITUDE
 40
-122.394
  9
$NORTHDIRECTION
 40
0.0
  9
$TIMEZONE
 70
 -8000
  9
$LIGHTGLYPHDISPLAY
280
     1
  9
$TILEMODELIGHTSYNCH
280
     1
  9
$CMATERIAL
347
96
  9
$SOLIDHIST
280
     1
  9
$SHOWHIST
280
     1
  9
$DWFFRAME
280
     2
  9
$DGNFRAME
280
     0
  9
$REALWORLDSCALE
290
     1
  9
$INTERFERECOLOR
 62
     1
  9
$CSHADOW
280
     0
  9
$SHADOWPLANELOCATION
 40
0.0
  0
ENDSEC
  0
SECTION
  2
CLASSES
  0
CLASS
  1
ACDBDICTIONARYWDFLT
  2
AcDbDictionaryWithDefault
  3
ObjectDBX Classes
 90
        0
 91
        6
280
     0
281
     0
  0
CLASS
  1
ACDBPLACEHOLDER
  2
AcDbPlaceHolder
  3
ObjectDBX Classes
 90
        0
 91
        1
280
     0
281
     0
  0
CLASS
  1
LAYOUT
  2
AcDbLayout
  3
ObjectDBX Classes
 90
        0
 91
        1
280
     0
281
     0
  0
CLASS
  1
DICTIONARYVAR
  2
AcDbDictionaryVar
  3
ObjectDBX Classes
 90
        0
 91
        6
280
     0
281
     0
  0
CLASS
  1
TABLESTYLE
  2
AcDbTableStyle
  3
ObjectDBX Classes
 90
     4095
 91
        6
280
     0
281
     0
  0
CLASS
  1
MATERIAL
  2
AcDbMaterial
  3
ObjectDBX Classes
 90
     1153
 91
        6
280
     0
281
     0
  0
CLASS
  1
VISUALSTYLE
  2
AcDbVisualStyle
  3
ObjectDBX Classes
 90
     4095
 91
        6
280
     0
281
     0
  0
CLASS
  1
SCALE
  2
AcDbScale
  3
ObjectDBX Classes
 90
     1153
 91
        6
280
     0
281
     0
  0
CLASS
  1
CELLSTYLEMAP
  2
AcDbCellStyleMap
  3
ObjectDBX Classes
 90
     1152
 91
        6
280
     0
281
     0
  0
CLASS
  1
RASTERVARIABLES
  2
AcDbRasterVariables
  3
ISM
 90
        0
 91
        6
280
     0
281
     0
  0
CLASS
  1
MLEADERSTYLE
  2
AcDbMLeaderStyle
  3
ACDB_MLEADERSTYLE_CLASS
 90
     4095
 91
        6
280
     0
281
     0
  0
CLASS
  1
SUN
  2
AcDbSun
  3
SCENEOE
 90
     1153
 91
        6
280
     0
281
     0
  0
CLASS
  1
DIMASSOC
  2
AcDbDimAssoc
  3
"AcDbDimAssoc|Product Desc:     AcDim ARX App For Dimension|Company:          Autodesk, Inc.|WEB Address:      www.autodesk.com"
 90
        0
 91
        6
280
     0
281
     0
  0
CLASS
  1
GEODATA
  2
AcDbGeoData
  3
ObjectDBX Classes
 90
     4095
 91
        5
280
     0
281
     0
  0
CLASS
  1
MESH
  2
AcDbSubDMesh
  3
AcDbSubDMesh|Description: AutoCAD subD mesh
 90
        0
 91
        5
280
     0
281
     1
  0
CLASS
  1
TCOPTIONALDATA
  2
TcOptionalData
  3
ExTcadCustObjs|Description: TurboCAD extension data object
 90
     4095
 91
        1
280
     1
281
     0
  0
CLASS
  1
IMAGEDEF
  2
AcDbRasterImageDef
  3
ISM
 90
        0
 91
        5
280
     0
281
     0
  0
CLASS
  1
IMAGE
  2
AcDbRasterImage
  3
ISM
 90
      127
 91
        6
280
     0
281
     1
  0
CLASS
  1
IMAGEDEF_REACTOR
  2
AcDbRasterImageDefReactor
  3
ISM
 90
        1
 91
        5
280
     0
281
     0
  0
ENDSEC
  0
SECTION
  2
TABLES
  0
TABLE
  2
VPORT
  5
8
330
0
100
AcDbSymbolTable
 70
     1
  0
VPORT
  5
94
330
8
100
AcDbSymbolTableRecord
100
AcDbViewportTableRecord
  2
*Active
 70
     0
 10
0.0
 20
0.0
 11
1.0
 21
1.0
 12
28.48899245112754
 22
-159.0457025776547
 13
0.0
 23
0.0
 14
0.5
 24
0.5
 15
0.5
 25
0.5
 16
0.0
 26
0.0
 36
1.0
 17
-56.39079470438752
 27
121.0343810142348
 37
36.95311364667147
 40
297.3156022010175
 41
1.494640122511485
 42
50.0
 43
0.0
 44
0.0
 50
0.0
 51
0.0
 71
    16
 72
  1000
 73
     1
 74
     3
 75
     0
 76
     0
 77
     0
 78
     0
281
     0
 65
     1
110
0.0
120
0.0
130
0.0
111
1.0
121
0.0
131
0.0
112
0.0
122
1.0
132
0.0
 79
     0
146
0.0
348
9F
 60
     2
 61
     5
292
     1
282
     1
141
0.0
142
0.0
 63
   250
421
  3355443
361
EE
  0
ENDTAB
  0
TABLE
  2
LTYPE
  5
5
330
0
100
AcDbSymbolTable
 70
     1
  0
LTYPE
  5
14
330
5
100
AcDbSymbolTableRecord
100
AcDbLinetypeTableRecord
  2
ByBlock
 70
     0
  3

 72
    65
 73
     0
 40
0.0
  0
LTYPE
  5
15
330
5
100
AcDbSymbolTableRecord
100
AcDbLinetypeTableRecord
  2
ByLayer
 70
     0
  3
Solid line
 72
    65
 73
     0
 40
0.0
  0
LTYPE
  5
16
330
5
100
AcDbSymbolTableRecord
100
AcDbLinetypeTableRecord
  2
Continuous
 70
     0
  3
Solid line
 72
    65
 73
     0
 40
0.0
  0
ENDTAB
  0
TABLE
  2
LAYER
  5
2
102
{ACAD_XDICTIONARY
360
4BE
102
}
330
0
100
AcDbSymbolTable
 70
    27
  0
LAYER
  5
10
330
2
100
AcDbSymbolTableRecord
100
AcDbLayerTableRecord
  2
0
 70
     0
 62
     7
  6
Continuous
370
    -3
390
F
347
98
  0
LAYER
  5
46B
330
2
100
AcDbSymbolTableRecord
100
AcDbLayerTableRecord
  2
Holes
 70
     0
 62
     3
  6
Continuous
370
    -3
390
F
347
98
1001
AcAecLayerStandard
1000

1000

  0
LAYER
  5
46F
330
2
100
AcDbSymbolTableRecord
100
AcDbLayerTableRecord
  2
AlumFrame
 70
     0
 62
     7
  6
Continuous
370
    -3
390
F
347
98
1001
AcAecLayerStandard
1000

1000

  0
LAYER
  5
470
330
2
100
AcDbSymbolTableRecord
100
AcDbLayerTableRecord
  2
Alum20x20x452
 70
     0
 62
     7
  6
Continuous
370
    -3
390
F
347
98
1001
AcAecLayerStandard
1000

1000

  0
LAYER
  5
11BA
330
2
100
AcDbSymbolTableRecord
100
AcDbLayerTableRecord
  2
FrameCuts
 70
     0
 62
     5
  6
Continuous
370
    -3
390
F
347
98
1001
AcAecLayerStandard
1000

1000

  0
LAYER
  5
1230
330
2
100
AcDbSymbolTableRecord
100
AcDbLayerTableRecord
  2
BuildPlate240mmx240mm
 70
     0
 62
     6
  6
Continuous
370
    -3
390
F
347
98
1001
AcAecLayerStandard
1000

1000

  0
LAYER
  5
123A
330
2
100
AcDbSymbolTableRecord
100
AcDbLayerTableRecord
  2
MaleFrame
 70
     0
 62
     5
  6
Continuous
370
    -3
390
F
347
98
1001
AcAecLayerStandard
1000

1000

  0
LAYER
  5
123B
330
2
100
AcDbSymbolTableRecord
100
AcDbLayerTableRecord
  2
FemaleFrame
 70
     0
 62
     4
  6
Continuous
370
    -3
390
F
347
98
1001
AcAecLayerStandard
1000

1000

  0
LAYER
  5
1243
330
2
100
AcDbSymbolTableRecord
100
AcDbLayerTableRecord
  2
Ears
 70
     0
 62
     4
  6
Continuous
370
    -3
390
F
347
98
1001
AcAecLayerStandard
1000

1000

  0
LAYER
  5
1340
330
2
100
AcDbSymbolTableRecord
100
AcDbLayerTableRecord
  2
WoodFrame
 70
     0
 62
    43
  6
Continuous
370
    -3
390
F
347
98
1001
AcAecLayerStandard
1000

1000

  0
LAYER
  5
13A2
330
2
100
AcDbSymbolTableRecord
100
AcDbLayerTableRecord
  2
BaseHorz
 70
     0
 62
     5
  6
Continuous
370
    -3
390
F
347
98
1001
AcAecLayerStandard
1000

1000

  0
LAYER
  5
13CF
330
2
100
AcDbSymbolTableRecord
100
AcDbLayerTableRecord
  2
X-Plate
 70
     0
 62
     5
  6
Continuous
370
    -3
390
F
347
98
1001
AcAecLayerStandard
1000

1000

  0
LAYER
  5
142F
330
2
100
AcDbSymbolTableRecord
100
AcDbLayerTableRecord
  2
Text
 70
     0
 62
     2
  6
Continuous
370
    -3
390
F
347
98
1001
AcAecLayerStandard
1000

1000

  0
LAYER
  5
1714
330
2
100
AcDbSymbolTableRecord
100
AcDbLayerTableRecord
  2
BumpUp
 70
     0
 62
    70
  6
Continuous
370
    -3
390
F
347
98
1001
AcAecLayerStandard
1000

1000

  0
LAYER
  5
2975
330
2
100
AcDbSymbolTableRecord
100
AcDbLayerTableRecord
  2
BrassBarCut
 70
     0
 62
    21
  6
Continuous
370
    -3
390
F
347
98
1001
AcAecLayerStandard
1000

1000

  0
ENDTAB
  0
TABLE
  2
STYLE
  5
3
330
0
100
AcDbSymbolTable
 70
     1
  0
STYLE
  5
11
330
3
100
AcDbSymbolTableRecord
100
AcDbTextStyleTableRecord
  2
Standard
 70
     0
 40
0.0
 41
1.0
 50
0.0
 71
     0
 42
0.2
  3
txt
  4

  0
ENDTAB
  0
TABLE
  2
VIEW
  5
6
330
0
100
AcDbSymbolTable
 70
     0
  0
ENDTAB
  0
TABLE
  2
UCS
  5
7
330
0
100
AcDbSymbolTable
 70
     0
  0
ENDTAB
  0
TABLE
  2
APPID
  5
9
330
0
100
AcDbSymbolTable
 70
     4
  0
APPID
  5
12
330
9
100
AcDbSymbolTableRecord
100
AcDbRegAppTableRecord
  2
ACAD
 70
     0
  0
APPID
  5
46D
330
9
100
AcDbSymbolTableRecord
100
AcDbRegAppTableRecord
  2
AcAecLayerStandard
 70
     0
  0
APPID
  5
143B
330
9
100
AcDbSymbolTableRecord
100
AcDbRegAppTableRecord
  2
TCAD
 70
     0
  0
APPID
  5
143C
330
9
100
AcDbSymbolTableRecord
100
AcDbRegAppTableRecord
  2
ACAD_MLEADERVER
 70
     0
  0
ENDTAB
  0
TABLE
  2
DIMSTYLE
  5
A
330
0
100
AcDbSymbolTable
 70
     1
100
AcDbDimStyleTable
  0
DIMSTYLE
105
27
330
A
100
AcDbSymbolTableRecord
100
AcDbDimStyleTableRecord
  2
Standard
 70
     0
 41
1.0
 42
1.0
 43
1.0
 44
0.5
 73
     0
 74
     0
140
1.0
147
0.5
178
     0
340
11
  0
ENDTAB
  0
TABLE
  2
BLOCK_RECORD
  5
1
330
0
100
AcDbSymbolTable
 70
    22
  0
BLOCK_RECORD
  5
1F
330
1
100
AcDbSymbolTableRecord
100
AcDbBlockTableRecord
  2
*Model_Space
340
22
 70
     0
280
     1
281
     0
  0
BLOCK_RECORD
  5
5D
330
1
100
AcDbSymbolTableRecord
100
AcDbBlockTableRecord
  2
*Paper_Space
340
5E
 70
     0
280
     1
281
     0
  0
BLOCK_RECORD
  5
58
330
1
100
AcDbSymbolTableRecord
100
AcDbBlockTableRecord
  2
*Paper_Space0
340
59
 70
     0
280
     1
281
     0
  0
BLOCK_RECORD
  5
4FA
330
1
100
AcDbSymbolTableRecord
100
AcDbBlockTableRecord
  2
HolePattern
340
0
102
{BLKREFS
331
508
102
}
 70
     1
280
     1
281
     0
  0
BLOCK_RECORD
  5
30EE
330
1
100
AcDbSymbolTableRecord
100
AcDbBlockTableRecord
  2
Pr8
340
0
102
{BLKREFS
331
0
331
30F8
331
30FB
331
30FC
331
30FD
331
30FE
331
30FF
331
3100
331
3101
331
311E
331
3125
331
3126
331
3127
331
3128
331
3129
331
312A
331
312B
331
312C
331
3130
102
}
 70
     1
280
     1
281
     0
  0
ENDTAB
  0
ENDSEC
  0
SECTION
  2
BLOCKS
  0
BLOCK
  5
20
330
1F
100
AcDbEntity
  8
0
100
AcDbBlockBegin
  2
*Model_Space
 70
     0
 10
0.0
 20
0.0
 30
0.0
  3
*Model_Space
  1
*Model_Space
  0
ENDBLK
  5
21
330
1F
100
AcDbEntity
  8
0
100
AcDbBlockEnd
  0
BLOCK
  5
5F
330
5D
100
AcDbEntity
 67
     1
  8
0
100
AcDbBlockBegin
  2
*Paper_Space
 70
     0
 10
0.0
 20
0.0
 30
0.0
  3
*Paper_Space
  1
*Paper_Space
  0
ENDBLK
  5
60
330
5D
100
AcDbEntity
 67
     1
  8
0
100
AcDbBlockEnd
  0
BLOCK
  5
5A
330
58
100
AcDbEntity
  8
0
100
AcDbBlockBegin
  2
*Paper_Space0
 70
     0
 10
0.0
 20
0.0
 30
0.0
  3
*Paper_Space0
  1
*Paper_Space0
  0
VIEWPORT
  5
2E8D
330
58
100
AcDbEntity
  8
0
100
AcDbViewport
 10
5.25
 20
4.0
 30
0.0
 40
12.6
 41
9.6
 68
     1
 69
     1
 12
5.25
 22
4.0
 13
0.0
 23
0.0
 14
0.5
 24
0.5
 15
0.0
 25
0.0
 16
0.0
 26
0.0
 36
1.0
 17
0.0
 27
0.0
 37
0.0
 42
50.0
 43
0.0
 44
0.0
 45
9.6
 50
0.0
 51
0.0
 72
   100
 90
   557152
  1

281
     0
 71
     1
 74
     0
110
0.0
120
0.0
130
0.0
111
1.0
121
0.0
131
0.0
112
0.0
122
1.0
132
0.0
 79
     0
146
0.0
170
     0
 61
     5
348
9F
292
     1
282
     1
141
0.0
142
0.0
 63
   256
361
2E8F
  0
VIEWPORT
  5
2E8E
330
58
100
AcDbEntity
  8
0
100
AcDbViewport
 10
5.25
 20
4.0
 30
0.0
 40
8.4
 41
6.4
 68
     2
 69
     2
 12
164.4813865518821
 22
15.58331590742051
 13
0.0
 23
0.0
 14
0.5
 24
0.5
 15
0.0
 25
0.0
 16
0.0
 26
0.0
 36
1.0
 17
0.0
 27
0.0
 37
0.0
 42
50.0
 43
0.0
 44
0.0
 45
580.6945355488623
 50
0.0
 51
0.0
 72
   100
 90
   557152
  1

281
     0
 71
     1
 74
     0
110
0.0
120
0.0
130
0.0
111
1.0
121
0.0
131
0.0
112
0.0
122
1.0
132
0.0
 79
     0
146
0.0
170
     0
 61
     5
348
9F
292
     1
282
     1
141
0.0
142
0.0
 63
   256
  0
ENDBLK
  5
5B
330
58
100
AcDbEntity
  8
0
100
AcDbBlockEnd
  0
BLOCK
  5
505
330
4FA
100
AcDbEntity
  8
0
100
AcDbBlockBegin
  2
HolePattern
 70
     0
 10
0.0
 20
0.0
 30
0.0
  3
HolePattern
  1
HolePattern
  0
CIRCLE
  5
4FB
330
4FA
100
AcDbEntity
  8
0
 62
     2
100
AcDbCircle
 10
-124.3
 20
-124.3
 30
0.0
 40
2.7
  0
LINE
  5
4FC
330
4FA
100
AcDbEntity
  8
0
 62
     2
100
AcDbLine
 10
-124.3
 20
-124.3
 30
0.0
 11
124.3
 21
-124.3
 31
0.0
  0
LINE
  5
4FD
330
4FA
100
AcDbEntity
  8
0
 62
     2
100
AcDbLine
 10
-124.3
 20
-124.3
 30
0.0
 11
-124.3
 21
124.3
 31
0.0
  0
CIRCLE
  5
4FE
330
4FA
100
AcDbEntity
  8
0
 62
     2
100
AcDbCircle
 10
124.3
 20
-124.3
 30
0.0
 40
2.7
  0
CIRCLE
  5
4FF
330
4FA
100
AcDbEntity
  8
0
 62
     2
100
AcDbCircle
 10
-124.3
 20
124.3
 30
0.0
 40
2.7
  0
CIRCLE
  5
500
330
4FA
100
AcDbEntity
  8
0
 62
     2
100
AcDbCircle
 10
124.3
 20
124.3
 30
0.0
 40
2.7
  0
LINE
  5
501
330
4FA
100
AcDbEntity
  8
0
 62
     2
100
AcDbLine
 10
-124.3
 20
124.3
 30
0.0
 11
124.3
 21
124.3
 31
0.0
  0
LINE
  5
502
330
4FA
100
AcDbEntity
  8
0
 62
     2
100
AcDbLine
 10
124.3
 20
-124.3
 30
0.0
 11
124.3
 21
124.3
 31
0.0
  0
LINE
  5
503
330
4FA
100
AcDbEntity
  8
0
 62
     2
100
AcDbLine
 10
-124.3
 20
-124.3
 30
0.0
 11
124.3
 21
124.3
 31
0.0
  0
LINE
  5
504
330
4FA
100
AcDbEntity
  8
0
 62
     2
100
AcDbLine
 10
0.0
 20
0.0
 30
0.0
 11
0.0
 21
-124.3
 31
0.0
  0
ENDBLK
  5
506
330
4FA
100
AcDbEntity
  8
0
100
AcDbBlockEnd
  0
BLOCK
  5
30F0
330
30EE
100
AcDbEntity
  8
0
100
AcDbBlockBegin
  2
Pr8
 70
     0
 10
0.0
 20
0.0
 30
0.0
  3
Pr8
  1
Pr8
  0
LWPOLYLINE
  5
30EF
330
30EE
100
AcDbEntity
  8
BumpUp
100
AcDbPolyline
 90
        7
 70
     1
 43
0.0
 10
-3.0
 20
-0.5
 10
3.0
 20
-0.5
 10
3.0
 20
2.242640687119284
 10
1.242640687119291
 20
4.0
 10
-1.242640687119291
 20
4.0
 10
-3.0
 20
2.242640687119284
 10
-3.0
 20
-0.5
  0
ENDBLK
  5
30F1
330
30EE
100
AcDbEntity
  8
0
100
AcDbBlockEnd
  0
ENDSEC
  0
SECTION
  2
ENTITIES
  0
CIRCLE
  5
4C3
330
1F
100
AcDbEntity
  8
Holes
100
AcDbCircle
 10
-124.3
 20
124.3
 30
0.0
 40
1.75
  0
LWPOLYLINE
  5
4C7
330
1F
100
AcDbEntity
  8
Alum20x20x452
100
AcDbPolyline
 90
        4
 70
     1
 43
0.0
 10
-104.6899999999999
 20
-151.7624999999999
 10
-104.6899999999999
 20
300.2375000000001
 10
-84.68999999999991
 20
300.2375000000001
 10
-84.68999999999991
 20
-151.7624999999999
  0
CIRCLE
  5
4C8
330
1F
100
AcDbEntity
  8
Holes
100
AcDbCircle
 10
-114.1899999999999
 20
67.5
 30
0.0
 40
2.75
  0
CIRCLE
  5
4C9
330
1F
100
AcDbEntity
  8
Holes
100
AcDbCircle
 10
124.3
 20
124.3
 30
0.0
 40
1.75
  0
CIRCLE
  5
4CA
330
1F
100
AcDbEntity
  8
Holes
100
AcDbCircle
 10
114.19
 20
67.5
 30
0.0
 40
3.75
  0
LWPOLYLINE
  5
4CF
330
1F
100
AcDbEntity
  8
Ears
100
AcDbPolyline
 90
       34
 70
     1
 43
0.0
 10
114.1999226893827
 20
-121.2015571693315
 10
113.2758234872953
 20
-122.9304251758766
 10
112.7067660083758
 20
-124.8063562793662
 10
112.5146188124081
 20
-126.7572594995275
 10
112.7067660083758
 20
-128.7081627196888
 10
113.2758234872953
 20
-130.5840938231784
 10
114.1999226893827
 20
-132.3129618297235
 10
115.4435510005427
 20
-133.828327311393
 10
116.9589164822121
 20
-135.0719556225529
 10
118.6877844887572
 20
-135.9960548246404
 10
120.5637155922469
 20
-136.5651123035598
 10
122.5146188124081
 20
-136.7572594995275
 10
124.4655220325694
 20
-136.5651123035598
 10
126.341453136059
 20
-135.9960548246404
 10
128.0703211426041
 20
-135.0719556225529
 10
129.5856866242736
 20
-133.828327311393
 10
131.7070069678333
 20
-131.7070069678333
 10
132.9506352789932
 20
-130.1916414861639
 10
133.8747344810807
 20
-128.4627734796188
 10
134.4437919600001
 20
-126.5868423761291
 10
134.6359391559678
 20
-124.6359391559679
 10
134.4437919600001
 20
-122.6850359358066
 10
133.8747344810807
 20
-120.809104832317
 10
132.9506352789932
 20
-119.0802368257718
 10
131.7070069678333
 20
-117.5648713441024
 10
130.1916414861638
 20
-116.3212430329424
 10
128.4627734796187
 20
-115.397143830855
 10
126.5868423761291
 20
-114.8280863519356
 10
124.6359391559678
 20
-114.6359391559679
 10
122.6850359358065
 20
-114.8280863519356
 10
120.8091048323169
 20
-115.397143830855
 10
119.0802368257718
 20
-116.3212430329424
 10
117.5648713441023
 20
-117.5648713441024
 10
115.4435510005427
 20
-119.686191687662
  0
CIRCLE
  5
4D0
330
1F
100
AcDbEntity
  8
Ears
100
AcDbCircle
 10
126.0819033759584
 20
-79.06938636825407
 30
0.0
 40
10.0
  0
LWPOLYLINE
  5
4D1
330
1F
100
AcDbEntity
  8
Ears
100
AcDbPolyline
 90
        4
 70
     1
 43
0.0
 10
119.0074283440763
 20
-86.13704696010288
 10
133.1495639678072
 20
-71.99491133637193
 10
124.0773839651838
 20
-62.92273133374852
 10
109.9352483414529
 20
-77.06486695747947
  0
CIRCLE
  5
4D4
330
1F
100
AcDbEntity
  8
Holes
100
AcDbCircle
 10
124.3
 20
-124.3
 30
0.0
 40
1.75
  0
CIRCLE
  5
4D5
330
1F
100
AcDbEntity
  8
Holes
100
AcDbCircle
 10
-124.3
 20
-124.3
 30
0.0
 40
1.75
  0
CIRCLE
  5
4D8
330
1F
100
AcDbEntity
  8
Ears
100
AcDbCircle
 10
-126.0819033759584
 20
-79.06938636825407
 30
0.0
 40
10.0
  0
LWPOLYLINE
  5
4DA
330
1F
100
AcDbEntity
  8
Ears
100
AcDbPolyline
 90
       33
 70
     1
 43
0.0
 10
-59.23238512085939
 20
4.163461307989874
 10
-64.17934531684556
 20
0.1698236215349082
 10
-65.67488102163051
 20
-1.652491907388248
 10
-66.78424719622262
 20
-3.727970040540261
 10
-67.46739151350575
 20
-5.979995047569539
 10
-67.69806112047846
 20
-8.322022870406066
 10
-67.46739151350575
 20
-10.6640506932426
 10
-66.78424719622262
 20
-12.91607570027186
 10
-65.67488102163051
 20
-14.9915538334239
 10
-64.18192530967927
 20
-16.8107256319832
 10
-62.36275351111995
 20
-18.30368134393445
 10
-60.28727537796792
 20
-19.41304751852656
 10
-58.03525037093868
 20
-20.09619183580969
 10
-55.69322254810214
 20
-20.32686144278238
 10
-53.35119472526559
 20
-20.09619183580969
 10
-51.09916971823634
 20
-19.41304751852656
 10
-49.02369158508431
 20
-18.30368134393444
 10
-47.28544290342366
 20
-16.87713751770966
 10
-44.08170535126068
 20
-14.31365314731199
 10
-42.58477949699272
 20
-12.48964371634271
 10
-41.47541332240061
 20
-10.41416558319068
 10
-40.79226900511749
 20
-8.162140576161427
 10
-40.56159939814478
 20
-5.82011275332489
 10
-40.79226900511749
 20
-3.478084930488356
 10
-41.47541332240061
 20
-1.2260599234591
 10
-42.58477949699272
 20
0.8494182096929306
 10
-44.077735208944
 20
2.668590008252238
 10
-45.89690700750329
 20
4.161545720203486
 10
-47.97238514065532
 20
5.270911894795604
 10
-50.22441014768458
 20
5.954056212078733
 10
-52.56643797052112
 20
6.184725819051426
 10
-54.90846579335766
 20
5.954056212078732
 10
-57.1604908003869
 20
5.270911894795604
  0
LWPOLYLINE
  5
4DC
330
1F
100
AcDbEntity
  8
Ears
100
AcDbPolyline
 90
       33
 70
     1
 43
0.0
 10
59.23238512085939
 20
4.163461307989874
 10
64.17934531684556
 20
0.1698236215349082
 10
65.67488102163051
 20
-1.652491907388248
 10
66.78424719622262
 20
-3.727970040540261
 10
67.46739151350575
 20
-5.979995047569539
 10
67.69806112047846
 20
-8.322022870406066
 10
67.46739151350575
 20
-10.6640506932426
 10
66.78424719622262
 20
-12.91607570027186
 10
65.67488102163051
 20
-14.9915538334239
 10
64.18192530967927
 20
-16.8107256319832
 10
62.36275351111995
 20
-18.30368134393445
 10
60.28727537796792
 20
-19.41304751852656
 10
58.03525037093868
 20
-20.09619183580969
 10
55.69322254810214
 20
-20.32686144278238
 10
53.35119472526559
 20
-20.09619183580969
 10
51.09916971823634
 20
-19.41304751852656
 10
49.02369158508431
 20
-18.30368134393444
 10
47.28544290342368
 20
-16.87713751770967
 10
44.08170535126068
 20
-14.31365314731199
 10
42.58477949699272
 20
-12.48964371634271
 10
41.47541332240061
 20
-10.41416558319068
 10
40.79226900511749
 20
-8.162140576161427
 10
40.56159939814478
 20
-5.82011275332489
 10
40.79226900511749
 20
-3.478084930488356
 10
41.47541332240061
 20
-1.2260599234591
 10
42.58477949699272
 20
0.8494182096929306
 10
44.077735208944
 20
2.668590008252238
 10
45.89690700750329
 20
4.161545720203486
 10
47.97238514065532
 20
5.270911894795604
 10
50.22441014768458
 20
5.954056212078733
 10
52.56643797052112
 20
6.184725819051426
 10
54.90846579335766
 20
5.954056212078732
 10
57.1604908003869
 20
5.270911894795604
  0
LWPOLYLINE
  5
4EC
330
1F
100
AcDbEntity
  8
BuildPlate240mmx240mm
100
AcDbPolyline
 90
        4
 70
     1
 43
0.0
 10
0.0
 20
-269.070868185159
 10
-169.7056274847713
 20
-99.36524070038767
 10
0.0000000000001137
 20
70.34038678438375
 10
169.7056274847715
 20
-99.36524070038763
  0
LINE
  5
4ED
330
1F
100
AcDbEntity
  8
BuildPlate240mmx240mm
100
AcDbLine
 10
-169.7056274847713
 20
-99.36524070038767
 30
0.0
 11
169.7056274847715
 21
-99.36524070038763
 31
0.0
  0
LWPOLYLINE
  5
4EE
330
1F
100
AcDbEntity
  8
Alum20x20x452
100
AcDbPolyline
 90
        4
 70
     1
 43
0.0
 10
104.69
 20
-151.7624999999999
 10
104.69
 20
300.2375000000001
 10
84.69000000000003
 20
300.2375000000001
 10
84.69000000000003
 20
-151.7624999999999
  0
INSERT
  5
508
330
1F
100
AcDbEntity
  8
0
100
AcDbBlockReference
  2
HolePattern
 10
0.0
 20
0.0
 30
0.0
  0
LWPOLYLINE
  5
5B0
330
1F
100
AcDbEntity
  8
Ears
100
AcDbPolyline
 90
        4
 70
     1
 43
0.0
 10
-119.0074283440763
 20
-86.13704696010288
 10
-133.1495639678072
 20
-71.99491133637193
 10
-124.0773839651838
 20
-62.92273133374852
 10
-109.9352483414529
 20
-77.06486695747947
  0
LWPOLYLINE
  5
5B1
330
1F
100
AcDbEntity
  8
Ears
100
AcDbPolyline
 90
       34
 70
     1
 43
0.0
 10
-114.1999226893827
 20
-121.2015571693315
 10
-113.2758234872953
 20
-122.9304251758766
 10
-112.7067660083758
 20
-124.8063562793662
 10
-112.5146188124081
 20
-126.7572594995275
 10
-112.7067660083758
 20
-128.7081627196888
 10
-113.2758234872953
 20
-130.5840938231784
 10
-114.1999226893827
 20
-132.3129618297235
 10
-115.4435510005427
 20
-133.828327311393
 10
-116.9589164822121
 20
-135.0719556225529
 10
-118.6877844887572
 20
-135.9960548246404
 10
-120.5637155922469
 20
-136.5651123035598
 10
-122.5146188124081
 20
-136.7572594995275
 10
-124.4655220325694
 20
-136.5651123035598
 10
-126.341453136059
 20
-135.9960548246404
 10
-128.0703211426041
 20
-135.0719556225529
 10
-129.5856866242736
 20
-133.828327311393
 10
-131.7070069678333
 20
-131.7070069678333
 10
-132.9506352789932
 20
-130.1916414861639
 10
-133.8747344810807
 20
-128.4627734796188
 10
-134.4437919600001
 20
-126.5868423761291
 10
-134.6359391559678
 20
-124.6359391559679
 10
-134.4437919600001
 20
-122.6850359358066
 10
-133.8747344810807
 20
-120.809104832317
 10
-132.9506352789932
 20
-119.0802368257718
 10
-131.7070069678333
 20
-117.5648713441024
 10
-130.1916414861638
 20
-116.3212430329424
 10
-128.4627734796187
 20
-115.397143830855
 10
-126.5868423761291
 20
-114.8280863519356
 10
-124.6359391559678
 20
-114.6359391559679
 10
-122.6850359358065
 20
-114.8280863519356
 10
-120.8091048323169
 20
-115.397143830855
 10
-119.0802368257718
 20
-116.3212430329424
 10
-117.5648713441023
 20
-117.5648713441024
 10
-115.4435510005427
 20
-119.686191687662
  0
LWPOLYLINE
  5
A6C
330
1F
100
AcDbEntity
  8
AlumFrame
100
AcDbPolyline
 90
      128
 70
     1
 43
0.0
 10
-120.0691584725982
 20
59.10369154603783
 10
-61.20089807117711
 20
12.0
 10
-61.20089807117711
 20
-12.0
 10
-120.0691584725982
 20
-59.10369154603783
 10
-120.9504556257322
 20
-59.79553767401607
 10
-121.750975702889
 20
-60.57944031018288
 10
-122.4611537169327
 20
-61.44603302033536
 10
-123.0725041298206
 20
-62.38496135071112
 10
-123.5777222417686
 20
-63.38500654782985
 10
-123.9707714712097
 20
-64.43421960539071
 10
-124.2469554826856
 20
-65.52006403657113
 10
-124.4029743008525
 20
-66.62956566581656
 10
-129.257224306869
 20
-123.6473690388997
 10
-129.3
 20
-124.3
 10
-129.257224306869
 20
-124.9526309611003
 10
-129.1296291314453
 20
-125.5940952255126
 10
-128.9193976625564
 20
-126.2134171618254
 10
-128.6301270189222
 20
-126.8
 10
-128.2667667014562
 20
-127.3438071450436
 10
-127.8355339059327
 20
-127.8355339059327
 10
-127.3438071450436
 20
-128.2667667014562
 10
-126.8000000000001
 20
-128.6301270189222
 10
-126.2134171618255
 20
-128.9193976625564
 10
-125.5940952255127
 20
-129.1296291314453
 10
-124.9526309611002
 20
-129.257224306869
 10
-124.3000000000001
 20
-129.3
 10
-123.6473690388998
 20
-129.257224306869
 10
-123.0059047744875
 20
-129.1296291314453
 10
-122.3865828381746
 20
-128.9193976625564
 10
-121.8000000000001
 20
-128.6301270189222
 10
-121.2561928549565
 20
-128.2667667014562
 10
-120.7644660940673
 20
-127.8355339059327
 10
-80.70200340927147
 20
-79.40148719192042
 10
-69.24529968218559
 20
-74.00988571170421
 10
69.24529968218559
 20
-74.00988571170421
 10
80.70200340927147
 20
-79.40148719192042
 10
120.7644660940673
 20
-127.8355339059327
 10
121.2561928549565
 20
-128.2667667014562
 10
121.8000000000001
 20
-128.6301270189222
 10
122.3865828381746
 20
-128.9193976625564
 10
123.0059047744874
 20
-129.1296291314453
 10
123.6473690388998
 20
-129.257224306869
 10
124.3
 20
-129.3
 10
124.9526309611003
 20
-129.257224306869
 10
125.5940952255127
 20
-129.1296291314453
 10
126.2134171618255
 20
-128.9193976625564
 10
126.8
 20
-128.6301270189222
 10
127.3438071450436
 20
-128.2667667014562
 10
127.8355339059327
 20
-127.8355339059327
 10
128.2667667014562
 20
-127.3438071450436
 10
128.6301270189222
 20
-126.8
 10
128.9193976625564
 20
-126.2134171618254
 10
129.1296291314453
 20
-125.5940952255126
 10
129.257224306869
 20
-124.9526309611003
 10
129.3
 20
-124.3
 10
129.257224306869
 20
-123.6473690388997
 10
124.4029743008525
 20
-66.62956566581656
 10
124.2469554826856
 20
-65.52006403657113
 10
123.9707714712096
 20
-64.43421960539071
 10
123.5777222417685
 20
-63.38500654782985
 10
123.0725041298206
 20
-62.38496135071112
 10
122.4611537169327
 20
-61.44603302033536
 10
121.750975702889
 20
-60.57944031018288
 10
120.9504556257322
 20
-59.79553767401607
 10
120.0691584725982
 20
-59.10369154603783
 10
61.20089807117711
 20
-12.0
 10
61.20089807117711
 20
12.0
 10
120.0691584725982
 20
59.10369154603783
 10
120.9504556257322
 20
59.79553767401607
 10
121.750975702889
 20
60.57944031018288
 10
122.4611537169327
 20
61.44603302033536
 10
123.0725041298206
 20
62.38496135071112
 10
123.5777222417685
 20
63.38500654782985
 10
123.9707714712096
 20
64.43421960539071
 10
124.2469554826856
 20
65.52006403657113
 10
124.4029743008525
 20
66.62956566581656
 10
129.257224306869
 20
123.6473690388997
 10
129.3
 20
124.3
 10
129.257224306869
 20
124.9526309611003
 10
129.1296291314453
 20
125.5940952255126
 10
128.9193976625564
 20
126.2134171618254
 10
128.6301270189222
 20
126.8
 10
128.2667667014562
 20
127.3438071450436
 10
127.8355339059327
 20
127.8355339059327
 10
127.3438071450436
 20
128.2667667014562
 10
126.8
 20
128.6301270189222
 10
126.2134171618255
 20
128.9193976625564
 10
125.5940952255127
 20
129.1296291314453
 10
124.9526309611003
 20
129.257224306869
 10
124.3
 20
129.3
 10
123.6473690388998
 20
129.257224306869
 10
123.0059047744874
 20
129.1296291314453
 10
122.3865828381746
 20
128.9193976625564
 10
121.8000000000001
 20
128.6301270189222
 10
121.2561928549565
 20
128.2667667014562
 10
120.7644660940673
 20
127.8355339059327
 10
80.70200340927147
 20
79.40148719192042
 10
69.24529968218559
 20
74.00988571170421
 10
-69.24529968218559
 20
74.00988571170421
 10
-80.70200340927147
 20
79.40148719192042
 10
-120.7644660940673
 20
127.8355339059327
 10
-121.2561928549565
 20
128.2667667014562
 10
-121.8000000000001
 20
128.6301270189222
 10
-122.3865828381746
 20
128.9193976625564
 10
-123.0059047744875
 20
129.1296291314453
 10
-123.6473690388998
 20
129.257224306869
 10
-124.3000000000001
 20
129.3
 10
-124.9526309611003
 20
129.257224306869
 10
-125.5940952255127
 20
129.1296291314453
 10
-126.2134171618254
 20
128.9193976625564
 10
-126.8
 20
128.6301270189222
 10
-127.3438071450436
 20
128.2667667014562
 10
-127.8355339059327
 20
127.8355339059327
 10
-128.2667667014562
 20
127.3438071450436
 10
-128.6301270189222
 20
126.8
 10
-128.9193976625564
 20
126.2134171618254
 10
-129.1296291314453
 20
125.5940952255126
 10
-129.257224306869
 20
124.9526309611003
 10
-129.3
 20
124.3
 10
-129.257224306869
 20
123.6473690388997
 10
-124.4029743008525
 20
66.62956566581656
 10
-124.2469554826856
 20
65.52006403657113
 10
-123.9707714712097
 20
64.43421960539071
 10
-123.5777222417686
 20
63.38500654782985
 10
-123.0725041298206
 20
62.38496135071112
 10
-122.4611537169327
 20
61.44603302033536
 10
-121.750975702889
 20
60.57944031018288
 10
-120.9504556257322
 20
59.79553767401607
  0
CIRCLE
  5
F47
330
1F
100
AcDbEntity
  8
Holes
100
AcDbCircle
 10
-45.000898096355
 20
-7.75
 30
0.0
 40
2.749519921161698
  0
CIRCLE
  5
FAB
330
1F
100
AcDbEntity
  8
Holes
100
AcDbCircle
 10
-45.00000002517788
 20
7.75
 30
0.0
 40
2.749519921161698
  0
CIRCLE
  5
1311
330
1F
100
AcDbEntity
  8
Holes
100
AcDbCircle
 10
73.66250000000005
 20
-61.76249999999999
 30
0.0
 40
1.75
  0
CIRCLE
  5
1312
330
1F
100
AcDbEntity
  8
Holes
100
AcDbCircle
 10
73.66250000000005
 20
-61.76249999999999
 30
0.0
 40
2.65
  0
LWPOLYLINE
  5
136A
330
1F
100
AcDbEntity
  8
FrameCuts
 62
     2
100
AcDbPolyline
 90
        4
 70
     1
 43
0.0
 10
-131.7625
 20
-131.7625
 10
-131.7625
 20
131.7624999999999
 10
131.7625
 20
131.7624999999999
 10
131.7625
 20
-131.7625
  0
LWPOLYLINE
  5
136B
330
1F
100
AcDbEntity
  8
WoodFrame
100
AcDbPolyline
 90
        3
 70
     0
 43
0.5
 10
63.99000000000002
 20
-108.0000000000001
 10
63.99000000000002
 20
-46.00000000000011
 10
16.99000000000003
 20
-46.00000000000011
  0
LINE
  5
136C
330
1F
100
AcDbEntity
  8
WoodFrame
100
AcDbLine
 10
10.69000000000003
 20
-108.0000000000001
 30
0.0
 11
10.69000000000003
 21
-46.00000000000011
 31
0.0
  0
LINE
  5
136D
330
1F
100
AcDbEntity
  8
WoodFrame
 62
     2
100
AcDbLine
 10
16.99000000000003
 20
-46.00000000000011
 30
0.0
 11
16.99000000000003
 21
-108.0000000000001
 31
0.0
  0
LINE
  5
136E
330
1F
100
AcDbEntity
  8
WoodFrame
100
AcDbLine
 10
10.69000000000003
 20
-46.00000000000011
 30
0.0
 11
16.99000000000003
 21
-46.00000000000011
 31
0.0
  0
LWPOLYLINE
  5
136F
330
1F
100
AcDbEntity
  8
WoodFrame
100
AcDbPolyline
 90
        4
 70
     1
 43
0.0
 10
-138.6899999999999
 20
-108.0000000000001
 10
-138.6899999999999
 20
-114.3
 10
157.69
 20
-114.3
 10
157.69
 20
-108.0000000000001
  0
LWPOLYLINE
  5
13D6
330
1F
100
AcDbEntity
  8
X-Plate
 62
     5
100
AcDbPolyline
 90
        4
 70
     1
 43
0.0
 10
-60.00089807117711
 20
-7.749130898862311
 42
0.9999999999999997
 10
-30.00089812153289
 20
-7.750869101137691
 10
-30.00000005035577
 20
7.749130898862312
 42
0.9999999999999999
 10
-59.99999999999999
 20
7.75086910113769
  0
LWPOLYLINE
  5
13E9
330
1F
100
AcDbEntity
  8
X-Plate
 62
     5
100
AcDbPolyline
 90
        4
 70
     1
 43
0.0
 10
60.00089807117711
 20
-7.749130898862311
 42
-0.9999999999999997
 10
30.00089812153289
 20
-7.750869101137691
 10
30.00000005035577
 20
7.749130898862312
 42
-0.9999999999999999
 10
59.99999999999999
 20
7.75086910113769
  0
CIRCLE
  5
13EB
330
1F
100
AcDbEntity
  8
Holes
100
AcDbCircle
 10
45.000898096355
 20
-7.75
 30
0.0
 40
2.749519921161698
  0
CIRCLE
  5
13EC
330
1F
100
AcDbEntity
  8
Holes
100
AcDbCircle
 10
45.00000002517788
 20
7.75
 30
0.0
 40
2.749519921161698
  0
LINE
  5
13F0
330
1F
100
AcDbEntity
  8
X-Plate
 62
     5
100
AcDbLine
 10
10.69000000000003
 20
-37.00000000000011
 30
0.0
 11
10.69714285714288
 21
-37.00000000000011
 31
0.0
  0
CIRCLE
  5
13F6
330
1F
100
AcDbEntity
  8
Holes
100
AcDbCircle
 10
0.0
 20
19.0
 30
0.0
 40
2.75
  0
LWPOLYLINE
  5
13F7
330
1F
100
AcDbEntity
  8
BaseHorz
100
AcDbPolyline
 90
       38
 70
     1
 43
0.0
 10
8.75
 20
16.25
 10
8.634711682419393
 20
17.4205419320968
 10
8.29327719506773
 20
18.54610059419056
 10
7.738817673815277
 20
19.58342139811762
 10
6.992640687119291
 20
20.49264068711929
 10
4.242640687119291
 20
23.24264068711932
 10
3.333421398117622
 20
23.98881767381528
 10
2.296100594190548
 20
24.54327719506773
 10
1.170541932096782
 20
24.88471168241938
 10
0.0
 20
25.0
 10
-1.170541932096768
 20
24.88471168241938
 10
-2.296100594190534
 20
24.54327719506773
 10
-3.333421398117594
 20
23.98881767381528
 10
-4.242640687119291
 20
23.24264068711929
 10
-6.992640687119291
 20
20.49264068711929
 10
-7.738817673815277
 20
19.58342139811762
 10
-8.29327719506773
 20
18.54610059419056
 10
-8.634711682419379
 20
17.4205419320968
 10
-8.75
 20
16.25
 10
-8.75
 20
-16.25
 10
-8.634711682419379
 20
-17.4205419320968
 10
-8.29327719506773
 20
-18.54610059419056
 10
-7.738817673815277
 20
-19.58342139811762
 10
-6.992640687119291
 20
-20.49264068711929
 10
-4.242640687119291
 20
-23.24264068711929
 10
-3.333421398117622
 20
-23.98881767381528
 10
-2.296100594190534
 20
-24.54327719506773
 10
-1.170541932096768
 20
-24.88471168241938
 10
0.0
 20
-25.0
 10
1.170541932096782
 20
-24.88471168241938
 10
2.296100594190548
 20
-24.54327719506773
 10
3.333421398117622
 20
-23.98881767381528
 10
4.242640687119291
 20
-23.24264068711932
 10
6.992640687119291
 20
-20.49264068711929
 10
7.738817673815277
 20
-19.58342139811762
 10
8.29327719506773
 20
-18.54610059419056
 10
8.634711682419393
 20
-17.4205419320968
 10
8.75
 20
-16.25
  0
CIRCLE
  5
13F8
330
1F
100
AcDbEntity
  8
Holes
100
AcDbCircle
 10
0.0
 20
-19.0
 30
0.0
 40
2.75
  0
TEXT
  5
1431
330
1F
100
AcDbEntity
  8
Text
100
AcDbText
 10
-65.50215502773375
 20
-40.40682800940533
 30
0.0
 40
11.10622232444439
  1
1
100
AcDbText
  0
TEXT
  5
1432
330
1F
100
AcDbEntity
  8
Text
100
AcDbText
 10
-38.38068127440937
 20
-57.03729392502413
 30
0.0
 40
11.10622232444439
  1
3
100
AcDbText
  0
TEXT
  5
1433
330
1F
100
AcDbEntity
  8
Text
100
AcDbText
 10
-4.750000000000007
 20
-44.74261207503045
 30
0.0
 40
11.10622232444439
  1
5
100
AcDbText
  0
TEXT
  5
1434
330
1F
100
AcDbEntity
  8
Text
100
AcDbText
 10
53.75911479295617
 20
-36.57210084425874
 30
0.0
 40
11.10622232444439
  1
2
100
AcDbText
  0
TEXT
  5
1435
330
1F
100
AcDbEntity
  8
Text
100
AcDbText
 10
29.39775543265723
 20
-59.82695906514343
 30
0.0
 40
11.10622232444439
  1
4
100
AcDbText
  0
TEXT
  5
1F72
330
1F
100
AcDbEntity
  8
Text
100
AcDbText
 10
-67.58932557484684
 20
-90.15374838089166
 30
0.0
 40
11.10622232444439
  1
6
100
AcDbText
  0
CIRCLE
  5
227C
330
1F
100
AcDbEntity
  8
Holes
100
AcDbCircle
 10
114.1899999999999
 20
103.5
 30
0.0
 40
2.75
  0
CIRCLE
  5
227D
330
1F
100
AcDbEntity
  8
Holes
100
AcDbCircle
 10
114.1899999999999
 20
103.5
 30
0.0
 40
3.75
  0
CIRCLE
  5
227E
330
1F
100
AcDbEntity
  8
Holes
100
AcDbCircle
 10
-114.1899999999999
 20
103.5
 30
0.0
 40
2.75
  0
CIRCLE
  5
227F
330
1F
100
AcDbEntity
  8
Holes
100
AcDbCircle
 10
-114.1899999999999
 20
103.5
 30
0.0
 40
3.75
  0
LINE
  5
2912
330
1F
100
AcDbEntity
  8
BumpUp
 62
     6
100
AcDbLine
 10
-70.90480468037138
 20
-71.00988571170419
 30
0.0
 11
70.90480468037138
 21
-71.00988571170419
 31
0.0
  0
LINE
  5
2914
330
1F
100
AcDbEntity
  8
BumpUp
 62
     6
100
AcDbLine
 10
39.000898096355
 20
-4.000000000000002
 30
0.0
 11
-39.000898096355
 21
-4.000000000000002
 31
0.0
  0
LINE
  5
295D
330
1F
100
AcDbEntity
  8
BumpUp
 62
     6
100
AcDbLine
 10
39.000898096355
 20
10.24999999999996
 30
0.0
 11
-39.000898096355
 21
10.24999999999996
 31
0.0
  0
LINE
  5
2973
330
1F
100
AcDbEntity
  8
BrassBarCut
100
AcDbLine
 10
-94.94438990100308
 20
-39.0
 30
0.0
 11
94.94438990100313
 21
-39.0
 31
0.0
  0
LINE
  5
2978
330
1F
100
AcDbEntity
  8
BrassBarCut
100
AcDbLine
 10
128.2424271279997
 20
-111.7276067817823
 30
0.0
 11
-128.2424271279999
 21
-111.7276067817823
 31
0.0
  0
LWPOLYLINE
  5
2C9E
330
1F
100
AcDbEntity
  8
BumpUp
100
AcDbPolyline
 90
        5
 70
     0
 43
0.0
 10
-29.5020015287089
 20
10.24999999999996
 10
-29.5020015287089
 20
16.91163847479162
 10
-70.13947853273578
 20
70.00988571170419
 10
-83.21431024556819
 20
76.1629890558906
 10
-116.6694017785059
 20
116.6089666004217
  0
LWPOLYLINE
  5
2CA1
330
1F
100
AcDbEntity
  8
BumpUp
100
AcDbPolyline
 90
        5
 70
     0
 43
0.0
 10
-26.98452446672889
 20
-4.000000000000002
 10
-26.98452446672889
 20
-13.62222118549913
 10
-70.90480468037138
 20
-71.00988571170419
 10
-83.97963639320379
 20
-77.1629890558906
 10
-116.6694017785059
 20
-116.6089666004217
  0
LWPOLYLINE
  5
2CA2
330
1F
100
AcDbEntity
  8
BumpUp
100
AcDbPolyline
 90
        5
 70
     0
 43
0.0
 10
29.5020015287089
 20
10.24999999999996
 10
29.5020015287089
 20
16.91163847479162
 10
70.13947853273578
 20
70.00988571170419
 10
83.21431024556819
 20
76.1629890558906
 10
116.6694017785059
 20
116.6089666004217
  0
LINE
  5
2CCF
330
1F
100
AcDbEntity
  8
BrassBarCut
100
AcDbLine
 10
128.2424271279997
 20
-95.27239321821767
 30
0.0
 11
-128.2424271279999
 21
-95.27239321821767
 31
0.0
  0
TEXT
  5
2DF3
330
1F
100
AcDbEntity
  8
Text
100
AcDbText
 10
-14.57245376759321
 20
-90.15374838089166
 30
0.0
 40
11.10622232444439
  1
7
100
AcDbText
  0
TEXT
  5
2DF4
330
1F
100
AcDbEntity
  8
Text
100
AcDbText
 10
22.26284203918697
 20
-90.15374838089166
 30
0.0
 40
11.10622232444439
  1
8
100
AcDbText
  0
CIRCLE
  5
2EB6
330
1F
100
AcDbEntity
  8
Holes
100
AcDbCircle
 10
-114.1899999999999
 20
67.5
 30
0.0
 40
3.75
  0
CIRCLE
  5
2EB7
330
1F
100
AcDbEntity
  8
Holes
100
AcDbCircle
 10
114.19
 20
67.5
 30
0.0
 40
2.75
  0
CIRCLE
  5
2EC0
330
1F
100
AcDbEntity
  8
Holes
100
AcDbCircle
 10
-114.1899999999999
 20
-67.5
 30
0.0
 40
2.75
  0
CIRCLE
  5
2EC1
330
1F
100
AcDbEntity
  8
Holes
100
AcDbCircle
 10
-114.1899999999999
 20
-103.5
 30
0.0
 40
2.75
  0
CIRCLE
  5
2EC2
330
1F
100
AcDbEntity
  8
Holes
100
AcDbCircle
 10
-114.1899999999999
 20
-103.5
 30
0.0
 40
3.75
  0
CIRCLE
  5
2EC3
330
1F
100
AcDbEntity
  8
Holes
100
AcDbCircle
 10
-114.1899999999999
 20
-67.5
 30
0.0
 40
3.75
  0
CIRCLE
  5
2EC4
330
1F
100
AcDbEntity
  8
Holes
100
AcDbCircle
 10
114.19
 20
-67.5
 30
0.0
 40
3.75
  0
CIRCLE
  5
2EC5
330
1F
100
AcDbEntity
  8
Holes
100
AcDbCircle
 10
114.1899999999999
 20
-103.5
 30
0.0
 40
2.75
  0
CIRCLE
  5
2EC6
330
1F
100
AcDbEntity
  8
Holes
100
AcDbCircle
 10
114.1899999999999
 20
-103.5
 30
0.0
 40
3.75
  0
CIRCLE
  5
2EC7
330
1F
100
AcDbEntity
  8
Holes
100
AcDbCircle
 10
114.19
 20
-67.5
 30
0.0
 40
2.75
  0
LINE
  5
2ED7
330
1F
100
AcDbEntity
  8
Holes
100
AcDbLine
 10
-104.6899999999999
 20
-46.79799180238756
 30
0.0
 11
-104.6899999999999
 21
-124.3
 31
0.0
  0
LINE
  5
2ED8
330
1F
100
AcDbEntity
  8
Holes
100
AcDbLine
 10
-106.5399999999999
 20
-46.79799180238756
 30
0.0
 11
-106.5399999999999
 21
-120.55
 31
0.0
  0
LINE
  5
2ED9
330
1F
100
AcDbEntity
  8
Holes
100
AcDbLine
 10
-102.8399999999999
 20
-45.31770635202846
 30
0.0
 11
-102.8399999999999
 21
-120.55
 31
0.0
  0
TEXT
  5
3027
330
1F
100
AcDbEntity
  8
Text
100
AcDbText
 10
66.54856922276636
 20
-90.15374838089166
 30
0.0
 40
11.10622232444439
  1
9
100
AcDbText
  0
LWPOLYLINE
  5
30C4
330
1F
100
AcDbEntity
  8
FrameCuts
100
AcDbPolyline
 90
       13
 70
     0
 43
0.0
 10
105.4688078873624
 20
-98.36102109719339
 10
112.7987476110221
 20
-95.36508561984962
 10
111.9133802667218
 20
-84.96560040839661
 10
102.8534096830503
 20
-58.13564858787672
 10
51.13074606074292
 20
-16.7495370127872
 10
47.56912598733362
 20
-15.49999999999999
 10
35.84339995496396
 20
-15.5
 10
35.84339995496396
 20
-20.26136367880054
 10
53.67938567473414
 20
-43.56644187960891
 10
73.50761800803338
 20
-55.01427715479367
 10
85.09854037279058
 20
-69.02727679712952
 10
87.92728781363363
 20
-77.15396726801868
 10
105.4688078873624
 20
-98.36102109719339
  0
LWPOLYLINE
  5
30C5
330
1F
100
AcDbEntity
  8
FrameCuts
100
AcDbPolyline
 90
        6
 70
     1
 43
0.0
 10
19.75
 20
-18.97131404882677
 10
24.64387155270936
 20
-15.5
 10
62.43764613083863
 20
-64.88257329230339
 10
60.93221833130116
 20
-68.00988571170421
 10
23.74999997174808
 20
-68.00988571170421
 10
19.75
 20
-64.01036112261987
  0
LWPOLYLINE
  5
30C6
330
1F
100
AcDbEntity
  8
FrameCuts
100
AcDbPolyline
 90
        8
 70
     1
 43
0.0
 10
7.000000000000057
 20
-74.00988571170421
 10
3.000000000000057
 20
-78.00988571170421
 10
3.000000000000057
 20
-110.55
 10
7.000000000000057
 20
-114.55
 10
39.62904039673725
 20
-114.55
 10
43.62904039673725
 20
-110.55
 10
43.62904039673725
 20
-78.00988571170421
 10
39.62904039673725
 20
-74.00988571170421
  0
LINE
  5
30C8
330
1F
100
AcDbEntity
  8
BumpUp
100
AcDbLine
 10
46.62904039673725
 20
-71.00988571170419
 30
0.0
 11
46.62904039673725
 21
-117.6089666004217
 31
0.0
  0
LINE
  5
30C9
330
1F
100
AcDbEntity
  8
BumpUp
100
AcDbLine
 10
16.75
 20
-4.0
 30
0.0
 11
16.75
 21
-71.00988571170419
 31
0.0
  0
LWPOLYLINE
  5
30CA
330
1F
100
AcDbEntity
  8
FrameCuts
100
AcDbPolyline
 90
        8
 70
     1
 43
0.0
 10
-9.75
 20
-68.01036112261987
 10
9.75
 20
-68.01036112261987
 10
13.75
 20
-64.01036112261987
 10
13.75
 20
-32.88471168241938
 10
9.75
 20
-28.88471168241938
 10
-9.75
 20
-28.88471168241938
 10
-13.75
 20
-32.88471168241938
 10
-13.75
 20
-64.01036112261987
  0
LWPOLYLINE
  5
30CB
330
1F
100
AcDbEntity
  8
FrameCuts
100
AcDbPolyline
 90
        8
 70
     1
 43
0.0
 10
-7.000000000000057
 20
-74.00988571170421
 10
-3.000000000000057
 20
-78.00988571170421
 10
-3.000000000000057
 20
-110.55
 10
-7.000000000000057
 20
-114.55
 10
-39.62904039673725
 20
-114.55
 10
-43.62904039673725
 20
-110.55
 10
-43.62904039673725
 20
-78.00988571170421
 10
-39.62904039673725
 20
-74.00988571170421
  0
LWPOLYLINE
  5
30CC
330
1F
100
AcDbEntity
  8
FrameCuts
100
AcDbPolyline
 90
        6
 70
     1
 43
0.0
 10
-19.75
 20
-18.97131404882677
 10
-24.64387155270936
 20
-15.5
 10
-62.43764613083869
 20
-64.88257329230339
 10
-60.93221833130116
 20
-68.00988571170421
 10
-23.74999997174808
 20
-68.00988571170421
 10
-19.75
 20
-64.01036112261987
  0
LWPOLYLINE
  5
30CD
330
1F
100
AcDbEntity
  8
FrameCuts
100
AcDbPolyline
 90
        8
 70
     1
 43
0.0
 10
-49.62904039673725
 20
-78.00988571170421
 10
-49.62904039673725
 20
-110.55
 10
-53.62904039673725
 20
-114.55
 10
-107.4537832341168
 20
-114.55
 10
-108.7662297971212
 20
-111.7611604529474
 10
-82.19664296206184
 20
-79.63950532490014
 10
-70.23417054245878
 20
-74.00988571170421
 10
-53.62904039673725
 20
-74.00988571170421
  0
LINE
  5
30CF
330
1F
100
AcDbEntity
  8
BumpUp
100
AcDbLine
 10
-16.75
 20
-4.0
 30
0.0
 11
-16.75
 21
-71.00988571170419
 31
0.0
  0
LINE
  5
30D0
330
1F
100
AcDbEntity
  8
BumpUp
100
AcDbLine
 10
-46.62904039673725
 20
-71.00988571170419
 30
0.0
 11
-46.62904039673725
 21
-117.6089666004217
 31
0.0
  0
LINE
  5
30D1
330
1F
100
AcDbEntity
  8
BumpUp
100
AcDbLine
 10
-0.0000000000000568
 20
-71.00988571170419
 30
0.0
 11
-0.0000000000000568
 21
-117.6089666004217
 31
0.0
  0
LWPOLYLINE
  5
30D4
330
1F
100
AcDbEntity
  8
BumpUp
100
AcDbPolyline
 90
       30
 70
     0
 43
0.0
 10
-51.51906125439024
 20
-8.095200389535888
 10
-118.2057312936236
 20
-61.45482600681723
 10
-118.9688237903152
 20
-62.0538777423731
 10
-119.5346945838134
 20
-62.60800201659318
 10
-120.0367044743824
 20
-63.22057816368395
 10
-120.4688552137803
 20
-63.88428683821797
 10
-120.8259832634765
 20
-64.591197739488
 10
-121.1038214910168
 20
-65.33286436643782
 10
-121.2990501557126
 20
-66.10042494039583
 10
-121.4207590080543
 20
-66.96593700844946
 10
-124.904859049301
 20
-107.8900202010612
 10
-124.4664168463867
 20
-111.4649248308494
 10
-122.5729405929215
 20
-114.6528075703872
 10
-119.5914426734662
 20
-116.7853690148854
 10
-116.8145725278882
 20
-117.6089666004217
 10
116.8145725278882
 20
-117.6089666004217
 10
119.5914426734661
 20
-116.7853690148854
 10
122.5729405929215
 20
-114.6528075703871
 10
124.4664168463868
 20
-111.4649248308495
 10
124.9048590493011
 20
-107.8900202010612
 10
121.4207590080543
 20
-66.96593700844963
 10
121.2990501557125
 20
-66.10042494039575
 10
121.1038214910167
 20
-65.3328643664376
 10
120.8259832634766
 20
-64.59119773948801
 10
120.4688552137804
 20
-63.88428683821801
 10
120.0367044743824
 20
-63.22057816368395
 10
119.5346945838133
 20
-62.6080020165931
 10
118.968823790315
 20
-62.053877742373
 10
118.2057312936218
 20
-61.45482600681581
 10
51.51906125439024
 20
-8.095200389535888
  0
INSERT
  5
30F8
330
1F
100
AcDbEntity
  8
BumpUp
100
AcDbBlockReference
  2
Pr8
 10
25.86667323742125
 20
0.0
 30
-45.2842263653563
210
0.7808100367046396
220
0.6247685063936078
230
0.0
  0
INSERT
  5
30FB
330
1F
100
AcDbEntity
  8
BumpUp
100
AcDbBlockReference
  2
Pr8
 10
26.98452446672889
 20
0.0
 30
-4.000000000000002
210
0.0
220
1.0
230
0.0
  0
INSERT
  5
30FC
330
1F
100
AcDbEntity
  8
BumpUp
100
AcDbBlockReference
  2
Pr8
 10
16.75
 20
0.0
 30
-4.0
210
0.0
220
1.0
230
0.0
  0
INSERT
  5
30FD
330
1F
100
AcDbEntity
  8
BumpUp
100
AcDbBlockReference
  2
Pr8
 10
-16.75
 20
0.0
 30
-4.0
210
0.0
220
1.0
230
0.0
  0
INSERT
  5
30FE
330
1F
100
AcDbEntity
  8
BumpUp
100
AcDbBlockReference
  2
Pr8
 10
-26.98452446672889
 20
0.0
 30
-4.000000000000002
210
0.0
220
1.0
230
0.0
  0
INSERT
  5
30FF
330
1F
100
AcDbEntity
  8
BumpUp
100
AcDbBlockReference
  2
Pr8
 10
46.62904039673725
 20
0.0
 30
-71.00988571170419
210
0.0
220
1.0
230
0.0
  0
INSERT
  5
3100
330
1F
100
AcDbEntity
  8
BumpUp
100
AcDbBlockReference
  2
Pr8
 10
0.0000000000000568
 20
0.0
 30
-71.00988571170419
210
0.0
220
1.0
230
0.0
  0
INSERT
  5
3101
330
1F
100
AcDbEntity
  8
BumpUp
100
AcDbBlockReference
  2
Pr8
 10
-46.62904039673725
 20
0.0
 30
-71.00988571170419
210
0.0
220
1.0
230
0.0
  0
LWPOLYLINE
  5
3105
330
1F
100
AcDbEntity
  8
FrameCuts
100
AcDbPolyline
 90
        6
 70
     1
 43
0.0
 10
-19.75
 20
18.97131404882677
 10
-24.64387155270936
 20
15.5
 10
-62.43764613083869
 20
64.88257329230339
 10
-60.93221833130116
 20
68.00988571170421
 10
-23.74999997174808
 20
68.00988571170421
 10
-19.75
 20
64.01036112261987
  0
LWPOLYLINE
  5
3106
330
1F
100
AcDbEntity
  8
FrameCuts
100
AcDbPolyline
 90
        8
 70
     1
 43
0.0
 10
-9.75
 20
68.01036112261987
 10
9.75
 20
68.01036112261987
 10
13.75
 20
64.01036112261987
 10
13.75
 20
32.88471168241938
 10
9.75
 20
28.88471168241938
 10
-9.75
 20
28.88471168241938
 10
-13.75
 20
32.88471168241938
 10
-13.75
 20
64.01036112261987
  0
LWPOLYLINE
  5
3107
330
1F
100
AcDbEntity
  8
FrameCuts
100
AcDbPolyline
 90
        6
 70
     1
 43
0.0
 10
19.75
 20
18.97131404882677
 10
24.64387155270936
 20
15.5
 10
62.43764613083863
 20
64.88257329230339
 10
60.93221833130116
 20
68.00988571170421
 10
23.74999997174808
 20
68.00988571170421
 10
19.75
 20
64.01036112261987
  0
LWPOLYLINE
  5
3109
330
1F
100
AcDbEntity
  8
FrameCuts
100
AcDbPolyline
 90
        8
 70
     1
 43
0.0
 10
49.62904039673725
 20
78.00988571170421
 10
49.62904039673725
 20
110.55
 10
53.62904039673725
 20
114.55
 10
107.4537832341168
 20
114.55
 10
108.7662297971212
 20
111.7611604529474
 10
81.33008011834568
 20
78.59186265791297
 10
71.59376103955753
 20
74.00988571170421
 10
53.62904039673725
 20
74.00988571170421
  0
LWPOLYLINE
  5
310A
330
1F
100
AcDbEntity
  8
FrameCuts
100
AcDbPolyline
 90
        8
 70
     1
 43
0.0
 10
7.000000000000057
 20
74.00988571170421
 10
3.000000000000057
 20
78.00988571170421
 10
3.000000000000057
 20
110.55
 10
7.000000000000057
 20
114.55
 10
39.62904039673725
 20
114.55
 10
43.62904039673725
 20
110.55
 10
43.62904039673725
 20
78.00988571170421
 10
39.62904039673725
 20
74.00988571170421
  0
LWPOLYLINE
  5
310B
330
1F
100
AcDbEntity
  8
FrameCuts
100
AcDbPolyline
 90
        8
 70
     1
 43
0.0
 10
-7.000000000000057
 20
74.00988571170421
 10
-3.000000000000057
 20
78.00988571170421
 10
-3.000000000000057
 20
110.55
 10
-7.000000000000057
 20
114.55
 10
-39.62904039673725
 20
114.55
 10
-43.62904039673725
 20
110.55
 10
-43.62904039673725
 20
78.00988571170421
 10
-39.62904039673725
 20
74.00988571170421
  0
LWPOLYLINE
  5
310C
330
1F
100
AcDbEntity
  8
FrameCuts
100
AcDbPolyline
 90
        8
 70
     1
 43
0.0
 10
-49.62904039673725
 20
78.00988571170421
 10
-49.62904039673725
 20
110.55
 10
-53.62904039673725
 20
114.55
 10
-107.4537832341168
 20
114.55
 10
-108.7662297971212
 20
111.7611604529474
 10
-81.33008011834573
 20
78.59186265791297
 10
-71.59376103955748
 20
74.00988571170421
 10
-53.62904039673725
 20
74.00988571170421
  0
LWPOLYLINE
  5
3112
330
1F
100
AcDbEntity
  8
BumpUp
100
AcDbPolyline
 90
       30
 70
     0
 43
0.0
 10
-51.51906125439024
 20
8.095200389535888
 10
-118.2057312936236
 20
61.45482600681723
 10
-118.9688237903152
 20
62.0538777423731
 10
-119.5346945838134
 20
62.60800201659318
 10
-120.0367044743824
 20
63.22057816368395
 10
-120.4688552137803
 20
63.88428683821797
 10
-120.8259832634765
 20
64.591197739488
 10
-121.1038214910168
 20
65.33286436643782
 10
-121.2990501557126
 20
66.10042494039583
 10
-121.4207590080543
 20
66.96593700844946
 10
-124.904859049301
 20
107.8900202010612
 10
-124.4664168463867
 20
111.4649248308494
 10
-122.5729405929215
 20
114.6528075703872
 10
-119.5914426734662
 20
116.7853690148854
 10
-116.8145725278882
 20
117.6089666004217
 10
116.8145725278882
 20
117.6089666004217
 10
119.5914426734661
 20
116.7853690148854
 10
122.5729405929215
 20
114.6528075703871
 10
124.4664168463868
 20
111.4649248308495
 10
124.9048590493011
 20
107.8900202010612
 10
121.4207590080543
 20
66.96593700844963
 10
121.2990501557125
 20
66.10042494039575
 10
121.1038214910167
 20
65.3328643664376
 10
120.8259832634766
 20
64.59119773948801
 10
120.4688552137804
 20
63.88428683821801
 10
120.0367044743824
 20
63.22057816368395
 10
119.5346945838133
 20
62.6080020165931
 10
118.968823790315
 20
62.053877742373
 10
118.2057312936218
 20
61.45482600681581
 10
51.51906125439024
 20
8.095200389535888
  0
LINE
  5
3115
330
1F
100
AcDbEntity
  8
BumpUp
100
AcDbLine
 10
-70.90480468037138
 20
-71.00988571170419
 30
0.0
 11
-83.97963639320379
 21
-77.1629890558906
 31
0.0
  0
LWPOLYLINE
  5
3118
330
1F
100
AcDbEntity
  8
FrameCuts
100
AcDbPolyline
 90
        8
 70
     1
 43
0.0
 10
49.62904039673725
 20
-78.00988571170421
 10
49.62904039673725
 20
-110.55
 10
53.62904039673725
 20
-114.55
 10
107.4537832341168
 20
-114.55
 10
108.7662297971212
 20
-111.7611604529474
 10
82.19664296206184
 20
-79.63950532490014
 10
70.23417054245878
 20
-74.00988571170421
 10
53.62904039673725
 20
-74.00988571170421
  0
LWPOLYLINE
  5
3119
330
1F
100
AcDbEntity
  8
BumpUp
100
AcDbPolyline
 90
        5
 70
     0
 43
0.0
 10
26.98452446672889
 20
-4.000000000000002
 10
26.98452446672889
 20
-13.62222118549913
 10
70.90480468037138
 20
-71.00988571170419
 10
83.97963639320379
 20
-77.1629890558906
 10
116.6694017785059
 20
-116.6089666004217
  0
INSERT
  5
311E
330
1F
100
AcDbEntity
  8
BumpUp
100
AcDbBlockReference
  2
Pr8
 10
-71.00988571170419
 20
0.0
 30
-70.90480468037138
210
1.0
220
0.0
230
0.0
  0
LINE
  5
311F
330
1F
100
AcDbEntity
  8
BumpUp
100
AcDbLine
 10
-46.62904039673725
 20
71.00988571170419
 30
0.0
 11
-46.62904039673725
 21
117.6089666004217
 31
0.0
  0
LINE
  5
3120
330
1F
100
AcDbEntity
  8
BumpUp
100
AcDbLine
 10
-0.0000000000000568
 20
71.00988571170419
 30
0.0
 11
-0.0000000000000568
 21
117.6089666004217
 31
0.0
  0
LINE
  5
3121
330
1F
100
AcDbEntity
  8
BumpUp
100
AcDbLine
 10
46.62904039673725
 20
71.00988571170419
 30
0.0
 11
46.62904039673725
 21
117.6089666004217
 31
0.0
  0
LINE
  5
3122
330
1F
100
AcDbEntity
  8
BumpUp
100
AcDbLine
 10
16.75
 20
10.24999999999996
 30
0.0
 11
16.75
 21
71.00988571170419
 31
0.0
  0
LINE
  5
3123
330
1F
100
AcDbEntity
  8
BumpUp
100
AcDbLine
 10
-16.75
 20
10.24999999999996
 30
0.0
 11
-16.75
 21
71.00988571170419
 31
0.0
  0
LINE
  5
3124
330
1F
100
AcDbEntity
  8
BumpUp
 62
     6
100
AcDbLine
 10
-70.90480468037138
 20
71.00988571170419
 30
0.0
 11
70.90480468037138
 21
71.00988571170419
 31
0.0
  0
INSERT
  5
3125
330
1F
100
AcDbEntity
  8
BumpUp
100
AcDbBlockReference
  2
Pr8
 10
71.00988571170419
 20
0.0
 30
-70.90480468037138
 41
-1.0
210
1.0
220
0.0
230
0.0
  0
INSERT
  5
3126
330
1F
100
AcDbEntity
  8
BumpUp
100
AcDbBlockReference
  2
Pr8
 10
-46.62904039673725
 20
0.0
 30
-71.00988571170419
 41
-1.0
210
0.0
220
-1.0
230
0.0
  0
INSERT
  5
3127
330
1F
100
AcDbEntity
  8
BumpUp
100
AcDbBlockReference
  2
Pr8
 10
-0.0000000000000568
 20
0.0
 30
-71.00988571170419
 41
-1.0
210
0.0
220
-1.0
230
0.0
  0
INSERT
  5
3128
330
1F
100
AcDbEntity
  8
BumpUp
100
AcDbBlockReference
  2
Pr8
 10
46.62904039673725
 20
0.0
 30
-71.00988571170419
 41
-1.0
210
0.0
220
-1.0
230
0.0
  0
INSERT
  5
3129
330
1F
100
AcDbEntity
  8
BumpUp
100
AcDbBlockReference
  2
Pr8
 10
16.75
 20
0.0
 30
-10.24999999999996
 41
-1.0
210
0.0
220
-1.0
230
0.0
  0
INSERT
  5
312A
330
1F
100
AcDbEntity
  8
BumpUp
100
AcDbBlockReference
  2
Pr8
 10
-16.75
 20
0.0
 30
-10.24999999999996
 41
-1.0
210
0.0
220
-1.0
230
0.0
  0
INSERT
  5
312B
330
1F
100
AcDbEntity
  8
BumpUp
100
AcDbBlockReference
  2
Pr8
 10
-29.5020015287089
 20
0.0
 30
-10.24999999999996
 41
-1.0
210
0.0
220
-1.0
230
0.0
  0
INSERT
  5
312C
330
1F
100
AcDbEntity
  8
BumpUp
100
AcDbBlockReference
  2
Pr8
 10
-25.86667323742125
 20
0.0
 30
-45.2842263653563
 41
-1.0
210
0.7808100367046396
220
-0.6247685063936078
230
0.0
  0
INSERT
  5
3130
330
1F
100
AcDbEntity
  8
BumpUp
100
AcDbBlockReference
  2
Pr8
 10
29.5020015287089
 20
0.0
 30
-10.24999999999996
 41
-1.0
210
0.0
220
-1.0
230
0.0
  0
LWPOLYLINE
  5
3156
330
1F
100
AcDbEntity
  8
FrameCuts
100
AcDbPolyline
 90
       13
 70
     0
 43
0.0
 10
-105.4688078873624
 20
-98.36102109719339
 10
-112.7987476110221
 20
-95.36508561984962
 10
-111.9133802667218
 20
-84.96560040839661
 10
-102.8534096830503
 20
-58.13564858787672
 10
-51.13074606074292
 20
-16.7495370127872
 10
-47.56912598733362
 20
-15.49999999999999
 10
-35.84339995496396
 20
-15.5
 10
-35.84339995496396
 20
-20.26136367880054
 10
-53.67938567473414
 20
-43.56644187960891
 10
-73.50761800803338
 20
-55.01427715479367
 10
-85.09854037279058
 20
-69.02727679712952
 10
-87.92728781363363
 20
-77.15396726801868
 10
-105.4688078873624
 20
-98.36102109719339
  0
LWPOLYLINE
  5
3157
330
1F
100
AcDbEntity
  8
FrameCuts
100
AcDbPolyline
 90
       13
 70
     0
 43
0.0
 10
105.4688078873624
 20
98.36102109719339
 10
112.7987476110221
 20
95.36508561984962
 10
111.9133802667218
 20
84.96560040839661
 10
102.8534096830503
 20
58.13564858787672
 10
51.13074606074292
 20
16.7495370127872
 10
47.56912598733362
 20
15.49999999999999
 10
35.84339995496396
 20
15.5
 10
35.84339995496396
 20
20.26136367880054
 10
53.67938567473414
 20
43.56644187960891
 10
73.50761800803338
 20
55.01427715479367
 10
85.09854037279058
 20
69.02727679712952
 10
87.92728781363363
 20
77.15396726801868
 10
105.4688078873624
 20
98.36102109719339
  0
LWPOLYLINE
  5
3158
330
1F
100
AcDbEntity
  8
FrameCuts
100
AcDbPolyline
 90
       13
 70
     0
 43
0.0
 10
-105.4688078873624
 20
98.36102109719339
 10
-112.7987476110221
 20
95.36508561984962
 10
-111.9133802667218
 20
84.96560040839661
 10
-102.8534096830503
 20
58.13564858787672
 10
-51.13074606074292
 20
16.7495370127872
 10
-47.56912598733362
 20
15.49999999999999
 10
-35.84339995496396
 20
15.5
 10
-35.84339995496396
 20
20.26136367880054
 10
-53.67938567473414
 20
43.56644187960891
 10
-73.50761800803338
 20
55.01427715479367
 10
-85.09854037279058
 20
69.02727679712952
 10
-87.92728781363363
 20
77.15396726801868
 10
-105.4688078873624
 20
98.36102109719339
  0
CIRCLE
  5
318A
330
1F
100
AcDbEntity
  8
Ears
100
AcDbCircle
 10
-94.94438990100308
 20
-39.0
 30
0.0
 40
10.0
  0
LWPOLYLINE
  5
31B8
330
1F
100
AcDbEntity
  8
FemaleFrame
100
AcDbPolyline
 90
       78
 70
     1
 43
0.0
 10
-117.0450029853724
 20
123.3388395470525
 10
-120.7644660940673
 20
127.8355339059327
 10
-121.2561928549565
 20
128.2667667014562
 10
-121.8000000000001
 20
128.6301270189222
 10
-122.3865828381746
 20
128.9193976625564
 10
-123.0059047744875
 20
129.1296291314453
 10
-123.6473690388998
 20
129.257224306869
 10
-124.3000000000001
 20
129.3
 10
-124.9526309611003
 20
129.257224306869
 10
-125.5940952255127
 20
129.1296291314453
 10
-126.2134171618254
 20
128.9193976625564
 10
-126.8
 20
128.6301270189222
 10
-127.3438071450436
 20
128.2667667014562
 10
-127.8355339059327
 20
127.8355339059327
 10
-128.2667667014562
 20
127.3438071450436
 10
-128.6301270189222
 20
126.8
 10
-128.9193976625564
 20
126.2134171618254
 10
-129.1296291314453
 20
125.5940952255126
 10
-129.257224306869
 20
124.9526309611003
 10
-129.3
 20
124.3
 10
-129.257224306869
 20
123.6473690388997
 10
-124.4029743008525
 20
66.62956566581656
 10
-124.2469554826856
 20
65.52006403657113
 10
-123.9707714712097
 20
64.43421960539071
 10
-123.5777222417686
 20
63.38500654782985
 10
-123.0725041298206
 20
62.38496135071112
 10
-122.4611537169327
 20
61.44603302033536
 10
-121.750975702889
 20
60.57944031018288
 10
-120.9504556257322
 20
59.79553767401607
 10
-120.0691584725982
 20
59.10369154603783
 10
-61.20089807117711
 20
12.0
 10
-61.20089807117711
 20
0.0
 10
-28.77617886855433
 20
0.0000000000000205
 10
-29.82207017531346
 20
6.250000000000017
 10
-20.73144632151025
 20
6.250000000000014
 10
-21.77733762826915
 20
0.0000000000000374
 10
-3.499420620142473
 20
0.0000000000000205
 10
-4.545311926901604
 20
6.250000000000017
 10
4.545311926901604
 20
6.250000000000014
 10
3.4994206201427
 20
0.0000000000000374
 10
21.77733762826915
 20
0.0000000000000374
 10
20.73144632151025
 20
6.250000000000014
 10
29.82207017531346
 20
6.250000000000017
 10
28.77617886855433
 20
0.0000000000000205
 10
61.20089807117711
 20
0.0
 10
61.20089807117711
 20
12.0
 10
120.0691584725982
 20
59.10369154603783
 10
120.9504556257322
 20
59.79553767401607
 10
121.7509757028889
 20
60.57944031018288
 10
122.4611537169327
 20
61.44603302033536
 10
123.0725041298206
 20
62.38496135071112
 10
123.5777222417686
 20
63.38500654782985
 10
123.9707714712096
 20
64.43421960539071
 10
124.2469554826856
 20
65.52006403657113
 10
124.4029743008525
 20
66.62956566581656
 10
129.257224306869
 20
123.6473690388997
 10
129.3
 20
124.3
 10
129.257224306869
 20
124.9526309611003
 10
129.1296291314453
 20
125.5940952255126
 10
128.9193976625564
 20
126.2134171618254
 10
128.6301270189222
 20
126.8
 10
128.2667667014562
 20
127.3438071450436
 10
127.8355339059327
 20
127.8355339059327
 10
127.3438071450436
 20
128.2667667014562
 10
126.8000000000001
 20
128.6301270189222
 10
126.2134171618255
 20
128.9193976625564
 10
125.5940952255127
 20
129.1296291314453
 10
124.9526309611002
 20
129.257224306869
 10
124.3000000000001
 20
129.3
 10
123.6473690388998
 20
129.257224306869
 10
123.0059047744875
 20
129.1296291314453
 10
122.3865828381746
 20
128.9193976625564
 10
121.8000000000001
 20
128.6301270189222
 10
121.2561928549565
 20
128.2667667014562
 10
120.7644660940673
 20
127.8355339059327
 10
117.0450029853727
 20
123.3388395470528
 10
111.1189514123471
 20
120.55
 10
-111.1189514123471
 20
120.55
  0
LWPOLYLINE
  5
31B9
330
1F
100
AcDbEntity
  8
MaleFrame
100
AcDbPolyline
 90
       78
 70
     1
 43
0.0
 10
61.20089807117711
 20
-12.0
 10
120.0691584725982
 20
-59.10369154603783
 10
120.9504556257322
 20
-59.79553767401607
 10
121.750975702889
 20
-60.57944031018288
 10
122.4611537169327
 20
-61.44603302033536
 10
123.0725041298206
 20
-62.38496135071112
 10
123.5777222417686
 20
-63.38500654782985
 10
123.9707714712097
 20
-64.43421960539071
 10
124.2469554826856
 20
-65.52006403657113
 10
124.4029743008525
 20
-66.62956566581656
 10
129.257224306869
 20
-123.6473690388997
 10
129.3
 20
-124.3
 10
129.257224306869
 20
-124.9526309611003
 10
129.1296291314453
 20
-125.5940952255126
 10
128.9193976625564
 20
-126.2134171618254
 10
128.6301270189222
 20
-126.8
 10
128.2667667014562
 20
-127.3438071450436
 10
127.8355339059327
 20
-127.8355339059327
 10
127.3438071450436
 20
-128.2667667014562
 10
126.8000000000001
 20
-128.6301270189222
 10
126.2134171618255
 20
-128.9193976625564
 10
125.5940952255127
 20
-129.1296291314453
 10
124.9526309611002
 20
-129.257224306869
 10
124.3000000000001
 20
-129.3
 10
123.6473690388998
 20
-129.257224306869
 10
123.0059047744875
 20
-129.1296291314453
 10
122.3865828381746
 20
-128.9193976625564
 10
121.8000000000001
 20
-128.6301270189222
 10
121.2561928549565
 20
-128.2667667014562
 10
120.7644660940673
 20
-127.8355339059327
 10
117.0450029853725
 20
-123.3388395470526
 10
111.1189514123471
 20
-120.55
 10
-111.1189514123471
 20
-120.55
 10
-117.0450029853724
 20
-123.3388395470525
 10
-120.7644660940673
 20
-127.8355339059327
 10
-121.2561928549565
 20
-128.2667667014562
 10
-121.8000000000001
 20
-128.6301270189222
 10
-122.3865828381746
 20
-128.9193976625564
 10
-123.0059047744875
 20
-129.1296291314453
 10
-123.6473690388998
 20
-129.257224306869
 10
-124.3000000000001
 20
-129.3
 10
-124.9526309611002
 20
-129.257224306869
 10
-125.5940952255127
 20
-129.1296291314453
 10
-126.2134171618255
 20
-128.9193976625564
 10
-126.8000000000001
 20
-128.6301270189222
 10
-127.3438071450436
 20
-128.2667667014562
 10
-127.8355339059327
 20
-127.8355339059327
 10
-128.2667667014562
 20
-127.3438071450436
 10
-128.6301270189222
 20
-126.8
 10
-128.9193976625564
 20
-126.2134171618254
 10
-129.1296291314453
 20
-125.5940952255126
 10
-129.257224306869
 20
-124.9526309611003
 10
-129.3
 20
-124.3
 10
-129.257224306869
 20
-123.6473690388997
 10
-124.4029743008525
 20
-66.62956566581656
 10
-124.2469554826856
 20
-65.52006403657113
 10
-123.9707714712097
 20
-64.43421960539071
 10
-123.5777222417686
 20
-63.38500654782985
 10
-123.0725041298206
 20
-62.38496135071112
 10
-122.4611537169327
 20
-61.44603302033536
 10
-121.750975702889
 20
-60.57944031018288
 10
-120.9504556257322
 20
-59.79553767401607
 10
-120.0691584725982
 20
-59.10369154603783
 10
-61.20089807117711
 20
-12.0
 10
-61.20089807117711
 20
0.0
 10
-28.37061682914452
 20
0.0000000000000062
 10
-29.34957109227105
 20
5.850000000000017
 10
-21.20394540455266
 20
5.850000000000014
 10
-22.18289966767895
 20
0.000000000000008
 10
-3.093858580732672
 20
0.0000000000000062
 10
-4.072812843859197
 20
5.850000000000017
 10
4.072812843859197
 20
5.850000000000014
 10
3.093858580732899
 20
0.000000000000008
 10
22.18289966767918
 20
0.0000000000000035
 10
21.20394540455266
 20
5.850000000000014
 10
29.34957109227105
 20
5.850000000000011
 10
28.37061682914475
 20
0.0000000000000053
 10
61.20089807117711
 20
0.0
  0
CIRCLE
  5
31BA
330
1F
100
AcDbEntity
  8
FemaleFrame
100
AcDbCircle
 10
-114.1899999999999
 20
-67.5
 30
0.0
 40
10.25000000000004
  0
CIRCLE
  5
31BB
330
1F
100
AcDbEntity
  8
FemaleFrame
100
AcDbCircle
 10
-124.3
 20
-124.3
 30
0.0
 40
4.999999999999988
  0
LWPOLYLINE
  5
31BD
330
1F
100
AcDbEntity
  8
FemaleFrame
100
AcDbPolyline
 90
        3
 70
     0
 43
0.0
 10
-120.7644660940673
 20
-127.8355339059327
 10
-117.0450029853724
 20
-123.3388395470525
 10
-111.1189514123471
 20
-120.55
  0
LINE
  5
31BE
330
1F
100
AcDbEntity
  8
FemaleFrame
100
AcDbLine
 10
75.01097564111386
 20
-60.64710166517844
 30
0.0
 11
76.88479622639079
 21
-59.097161646354
 31
0.0
  0
CIRCLE
  5
31BF
330
1F
100
AcDbEntity
  8
FemaleFrame
100
AcDbCircle
 10
73.66250000000005
 20
-61.76249999999999
 30
0.0
 40
4.181772532076355
  0
LINE
  5
31C1
330
1F
100
AcDbEntity
  8
FemaleFrame
100
AcDbLine
 10
-94.94438990100308
 20
-39.0
 30
0.0
 11
-88.69670483706702
 21
-46.80810036704638
 31
0.0
  0
VIEWPORT
  5
2E90
330
5D
100
AcDbEntity
 67
     1
  8
0
100
AcDbViewport
 10
0.0
 20
0.0
 30
0.0
 40
10.75010604192356
 41
6.144000000000002
 68
     1
 69
     1
 12
3.496228819337693
 22
3.852647972331309
 13
0.0
 23
0.0
 14
0.5
 24
0.5
 15
0.0
 25
0.0
 16
0.0
 26
0.0
 36
1.0
 17
0.0
 27
0.0
 37
0.0
 42
50.0
 43
0.0
 44
0.0
 45
6.144000000000002
 50
0.0
 51
0.0
 72
   100
 90
   557168
  1

281
     0
 71
     1
 74
     0
110
0.0
120
0.0
130
0.0
111
1.0
121
0.0
131
0.0
112
0.0
122
1.0
132
0.0
 79
     0
146
0.0
170
     0
 61
     5
348
9F
292
     1
282
     1
141
0.0
142
0.0
 63
   256
361
2E92
  0
VIEWPORT
  5
2E91
330
5D
100
AcDbEntity
 67
     1
  8
0
100
AcDbViewport
 10
5.25
 20
4.0
 30
0.0
 40
8.4
 41
6.4
 68
     2
 69
     2
 12
164.4813865518821
 22
15.58331590742051
 13
0.0
 23
0.0
 14
0.5
 24
0.5
 15
0.0
 25
0.0
 16
0.0
 26
0.0
 36
1.0
 17
0.0
 27
0.0
 37
0.0
 42
50.0
 43
0.0
 44
0.0
 45
580.6945355488623
 50
0.0
 51
0.0
 72
   100
 90
   557152
  1

281
     0
 71
     1
 74
     0
110
0.0
120
0.0
130
0.0
111
1.0
121
0.0
131
0.0
112
0.0
122
1.0
132
0.0
 79
     0
146
0.0
170
     0
 61
     5
348
9F
292
     1
282
     1
141
0.0
142
0.0
 63
   256
  0
ENDSEC
  0
SECTION
  2
OBJECTS
  0
DICTIONARY
  5
C
330
0
100
AcDbDictionary
281
     1
  3
ACAD_COLOR
350
73
  3
ACAD_DETAILVIEWSTYLE
350
104
  3
ACAD_GROUP
350
D
  3
ACAD_IMAGE_DICT
350
2D24
  3
ACAD_IMAGE_VARS
350
DC
  3
ACAD_LAYOUT
350
1A
  3
ACAD_MATERIAL
350
72
  3
ACAD_MLEADERSTYLE
350
B5
  3
ACAD_MLINESTYLE
350
17
  3
ACAD_PLOTSETTINGS
350
19
  3
ACAD_PLOTSTYLENAME
350
E
  3
ACAD_SCALELIST
350
B6
  3
ACAD_SECTIONVIEWSTYLE
350
105
  3
ACAD_TABLESTYLE
350
86
  3
ACAD_VISUALSTYLE
350
99
  3
ACDB_RECOMPOSE_DATA
350
31C6
  3
AcDbVariableDictionary
350
66
  3
APPDATA
350
E1
  0
SUN
  5
EE
330
94
100
AcDbSun
 90
        1
290
     0
 63
     7
421
 16777215
 40
1.0
291
     1
 91
  2455826
 92
 54000000
292
     0
 70
     2
 71
   256
280
     1
  0
DICTIONARY
  5
4BE
330
2
100
AcDbDictionary
280
     1
281
     1
  3
ACAD_LAYERSTATES
360
4BF
  3
ACLYDICTIONARY
360
31C3
  0
SUN
  5
2E8F
330
2E8D
100
AcDbSun
 90
        1
290
     0
 63
     7
421
 16777215
 40
1.0
291
     1
 91
  2455826
 92
 54000000
292
     0
 70
     2
 71
   256
280
     1
  0
SUN
  5
2E92
330
2E90
100
AcDbSun
 90
        1
290
     0
 63
     7
421
 16777215
 40
1.0
291
     1
 91
  2455826
 92
 54000000
292
     0
 70
     2
 71
   256
280
     1
  0
DICTIONARY
  5
73
102
{ACAD_REACTORS
330
C
102
}
330
C
100
AcDbDictionary
281
     1
  0
DICTIONARY
  5
104
102
{ACAD_REACTORS
330
C
102
}
330
C
100
AcDbDictionary
281
     1
  0
DICTIONARY
  5
D
102
{ACAD_REACTORS
330
C
102
}
330
C
100
AcDbDictionary
281
     1
  0
DICTIONARY
  5
2D24
102
{ACAD_REACTORS
330
C
102
}
330
C
100
AcDbDictionary
281
     1
  3
Wrench3mmX5mm
350
2D25
  0
RASTERVARIABLES
  5
DC
102
{ACAD_REACTORS
330
C
102
}
330
C
100
AcDbRasterVariables
 90
        0
 70
     1
 71
     1
 72
     5
  0
DICTIONARY
  5
1A
102
{ACAD_REACTORS
330
C
102
}
330
C
100
AcDbDictionary
281
     1
  3
Model
350
22
  3
Sheet1
350
59
  3
Sheet2
350
5E
  0
DICTIONARY
  5
72
102
{ACAD_REACTORS
330
C
102
}
330
C
100
AcDbDictionary
281
     1
  3
ByLayer
350
96
  3
Global
350
98
  0
DICTIONARY
  5
B5
102
{ACAD_REACTORS
330
C
102
}
330
C
100
AcDbDictionary
281
     1
  3
Standard
350
ED
  0
DICTIONARY
  5
17
102
{ACAD_REACTORS
330
C
102
}
330
C
100
AcDbDictionary
281
     1
  3
Standard
350
18
  0
DICTIONARY
  5
19
102
{ACAD_REACTORS
330
C
102
}
330
C
100
AcDbDictionary
281
     1
  0
ACDBDICTIONARYWDFLT
  5
E
102
{ACAD_REACTORS
330
C
102
}
330
C
100
AcDbDictionary
281
     1
  3
Normal
350
F
100
AcDbDictionaryWithDefault
340
F
  0
DICTIONARY
  5
B6
102
{ACAD_REACTORS
330
C
102
}
330
C
100
AcDbDictionary
281
     1
  3
A0
350
B7
  3
A1
350
B8
  3
A2
350
B9
  3
A3
350
BA
  3
A4
350
BB
  3
A5
350
BC
  3
A6
350
BD
  3
A7
350
BE
  3
A8
350
BF
  3
A9
350
C0
  3
B0
350
C1
  3
B1
350
C2
  3
B2
350
C3
  3
B3
350
C4
  3
B4
350
C5
  3
B5
350
C6
  3
B6
350
C7
  3
B7
350
C8
  3
B8
350
C9
  3
B9
350
CA
  3
C0
350
CB
  3
C1
350
CC
  3
C2
350
CD
  3
C3
350
CE
  3
C4
350
CF
  3
C5
350
D0
  3
C6
350
D1
  3
C7
350
D2
  3
C8
350
D3
  3
C9
350
D4
  3
D0
350
D5
  3
D1
350
D6
  3
D2
350
D7
  0
DICTIONARY
  5
105
102
{ACAD_REACTORS
330
C
102
}
330
C
100
AcDbDictionary
281
     1
  0
DICTIONARY
  5
86
102
{ACAD_REACTORS
330
C
102
}
330
C
100
AcDbDictionary
281
     1
  3
Standard
350
87
  0
DICTIONARY
  5
99
102
{ACAD_REACTORS
330
C
102
}
330
C
100
AcDbDictionary
281
     1
  3
2dWireframe
350
9F
  3
3D Hidden
350
A1
  3
3dWireframe
350
A0
  3
Basic
350
9E
  3
Brighten
350
A5
  3
ColorChange
350
A9
  3
Conceptual
350
A2
  3
Dim
350
A4
  3
EdgeColorOff
350
E7
  3
Facepattern
350
A8
  3
Flat
350
9A
  3
FlatWithEdges
350
9B
  3
Gouraud
350
9C
  3
GouraudWithEdges
350
9D
  3
Hidden
350
E4
  3
JitterOff
350
E5
  3
Linepattern
350
A7
  3
OverhangOff
350
E6
  3
Realistic
350
A3
  3
Shaded
350
EC
  3
Shaded with edges
350
EB
  3
Shades of Gray
350
E8
  3
Sketchy
350
E9
  3
Thicken
350
A6
  3
Wireframe
350
E3
  3
X-Ray
350
EA
  0
XRECORD
  5
31C6
102
{ACAD_REACTORS
330
C
102
}
330
C
100
AcDbXrecord
280
     1
 90
        1
330
87
  0
DICTIONARY
  5
66
102
{ACAD_REACTORS
330
C
102
}
330
C
100
AcDbDictionary
281
     1
  3
CANNOSCALE
350
D8
  3
CMLEADERSTYLE
350
103
  3
CTABLESTYLE
350
89
  3
DIMASSOC
350
67
  3
HIDETEXT
350
6B
  3
HPTRANSPARENCY
350
119
  3
LIGHTSINBLOCKS
350
DF
  3
XCLIPFRAME
350
E0
  0
DICTIONARY
  5
E1
102
{ACAD_REACTORS
330
C
102
}
330
C
100
AcDbDictionary
281
     1
  0
DICTIONARY
  5
4BF
102
{ACAD_REACTORS
330
4BE
102
}
330
4BE
100
AcDbDictionary
281
     1
  3
ARGON_LAYERP_143
350
142E
  3
ARGON_LAYERP_3
350
2872
  3
ARGON_LAYERP_4
350
27D7
  0
DICTIONARY
  5
31C3
102
{ACAD_REACTORS
330
4BE
102
}
330
4BE
100
AcDbDictionary
281
     1
1001
ACAD
1000
<All
  0
IMAGEDEF
  5
2D25
102
{ACAD_REACTORS
330
2D24
102
}
330
2D24
100
AcDbRasterImageDef
 90
        0
  1
E:/My Documents/_Drawings/_OpenSCAD/_i3vPrinter/Y_BuildPlate/Wrench3mmX5mm.jpg
 10
1157.0
 20
210.0
 11
0.000864304235090752
 21
0.000864304235090752
280
     1
281
     0
  0
LAYOUT
  5
22
102
{ACAD_REACTORS
330
1A
102
}
330
1A
100
AcDbPlotSettings
  1

  2
none_device
  4
ANSI_A_(8.50_x_11.00_Inches)
  6

 40
6.35
 41
19.05
 42
6.35
 43
19.05
 44
215.9
 45
279.4
 46
11.11250000000003
 47
0.0000000000000142
 48
0.0
 49
0.0
140
0.0
141
0.0
142
1.0
143
1.263157894736842
 70
 11444
 72
     0
 73
     1
 74
     1
  7
monochrome.ctb
 75
     0
 76
     0
 77
     2
 78
   300
147
0.7916666666666665
148
-702.8076765758875
149
-496.2830551296954
100
AcDbLayout
  1
Model
 70
     1
 71
     0
 10
0.0
 20
0.0
 11
12.0
 21
9.0
 12
0.0
 22
0.0
 32
0.0
 14
-222.9054439360279
 24
-269.070868185159
 34
-0.5
 15
169.7056274847715
 25
300.2375000000001
 35
4.0
146
0.0
 13
0.0
 23
0.0
 33
0.0
 16
1.0
 26
0.0
 36
0.0
 17
0.0
 27
1.0
 37
0.0
 76
     0
330
1F
331
94
  0
LAYOUT
  5
59
102
{ACAD_REACTORS
330
1A
102
}
330
1A
100
AcDbPlotSettings
  1

  2
None
  4
Letter_(8.50_x_11.00_Inches)
  6

 40
6.35
 41
6.35
 42
6.35
 43
6.35
 44
215.9
 45
279.4
 46
0.0
 47
0.0
 48
0.0
 49
0.0
140
0.0
141
0.0
142
1.0
143
1.0
 70
   688
 72
     0
 73
     1
 74
     5
  7

 75
    16
 76
     0
 77
     2
 78
   300
147
1.0
148
0.0
149
0.0
100
AcDbLayout
  1
Sheet1
 70
     1
 71
     1
 10
0.0
 20
0.0
 11
10.75
 21
8.25
 12
0.0
 22
0.0
 32
0.0
 14
0.0
 24
0.0
 34
0.0
 15
0.0
 25
0.0
 35
0.0
146
0.0
 13
0.0
 23
0.0
 33
0.0
 16
1.0
 26
0.0
 36
0.0
 17
0.0
 27
1.0
 37
0.0
 76
     0
330
58
331
2E8D
  0
LAYOUT
  5
5E
102
{ACAD_REACTORS
330
1A
102
}
330
1A
100
AcDbPlotSettings
  1

  2
None
  4
Letter_(8.50_x_11.00_Inches)
  6

 40
6.35
 41
6.35
 42
6.35
 43
6.35
 44
215.9
 45
279.4
 46
0.0
 47
0.0
 48
0.0
 49
0.0
140
0.0
141
0.0
142
1.0
143
1.0
 70
   688
 72
     0
 73
     1
 74
     5
  7

 75
    16
 76
     0
 77
     2
 78
   300
147
1.0
148
0.0
149
0.0
100
AcDbLayout
  1
Sheet2
 70
     1
 71
     2
 10
0.0
 20
0.0
 11
10.75
 21
8.25
 12
0.0
 22
0.0
 32
0.0
 14
0.0
 24
0.0
 34
0.0
 15
0.0
 25
0.0
 35
0.0
146
0.0
 13
0.0
 23
0.0
 33
0.0
 16
1.0
 26
0.0
 36
0.0
 17
0.0
 27
1.0
 37
0.0
 76
     0
330
5D
331
2E90
  0
MATERIAL
  5
96
102
{ACAD_REACTORS
330
72
102
}
330
72
100
AcDbMaterial
  1
ByLayer
 72
     1
 94
       63
  0
MATERIAL
  5
98
102
{ACAD_REACTORS
330
72
102
}
330
72
100
AcDbMaterial
  1
Global
 72
     1
 94
       63
  0
MLEADERSTYLE
  5
ED
102
{ACAD_REACTORS
330
B5
102
}
330
B5
100
AcDbMLeaderStyle
170
     2
171
     1
172
     0
 90
        2
 40
0.0
 41
0.0
173
     1
 91
-1056964608
340
14
 92
       -2
290
     1
 42
0.09
291
     1
 43
0.36
  3
Standard
341
0
 44
0.18
300

342
11
174
     1
178
     6
175
     1
176
     0
 93
-1056964608
 45
0.18
292
     0
297
     0
 46
0.18
343
0
 94
-1056964608
 47
1.0
 49
1.0
140
1.0
293
     1
141
0.0
294
     1
177
     0
142
1.0
295
     0
296
     0
143
0.125
1001
ACAD_MLEADERVER
1070
     2
  0
MLINESTYLE
  5
18
102
{ACAD_REACTORS
330
17
102
}
330
17
100
AcDbMlineStyle
  2
STANDARD
 70
     0
  3

 62
   256
 51
90.0
 52
90.0
 71
     2
 49
0.5
 62
   256
  6
BYLAYER
 49
-0.5
 62
   256
  6
BYLAYER
  0
ACDBPLACEHOLDER
  5
F
102
{ACAD_REACTORS
330
E
102
}
330
E
  0
SCALE
  5
B7
102
{ACAD_REACTORS
330
B6
102
}
330
B6
100
AcDbScale
 70
     0
300
1:1
140
1.0
141
1.0
290
     1
  0
SCALE
  5
B8
102
{ACAD_REACTORS
330
B6
102
}
330
B6
100
AcDbScale
 70
     0
300
1:2
140
1.0
141
2.0
290
     0
  0
SCALE
  5
B9
102
{ACAD_REACTORS
330
B6
102
}
330
B6
100
AcDbScale
 70
     0
300
1:4
140
1.0
141
4.0
290
     0
  0
SCALE
  5
BA
102
{ACAD_REACTORS
330
B6
102
}
330
B6
100
AcDbScale
 70
     0
300
1:5
140
1.0
141
5.0
290
     0
  0
SCALE
  5
BB
102
{ACAD_REACTORS
330
B6
102
}
330
B6
100
AcDbScale
 70
     0
300
1:8
140
1.0
141
8.0
290
     0
  0
SCALE
  5
BC
102
{ACAD_REACTORS
330
B6
102
}
330
B6
100
AcDbScale
 70
     0
300
1:10
140
1.0
141
10.0
290
     0
  0
SCALE
  5
BD
102
{ACAD_REACTORS
330
B6
102
}
330
B6
100
AcDbScale
 70
     0
300
1:16
140
1.0
141
16.0
290
     0
  0
SCALE
  5
BE
102
{ACAD_REACTORS
330
B6
102
}
330
B6
100
AcDbScale
 70
     0
300
1:20
140
1.0
141
20.0
290
     0
  0
SCALE
  5
BF
102
{ACAD_REACTORS
330
B6
102
}
330
B6
100
AcDbScale
 70
     0
300
1:30
140
1.0
141
30.0
290
     0
  0
SCALE
  5
C0
102
{ACAD_REACTORS
330
B6
102
}
330
B6
100
AcDbScale
 70
     0
300
1:40
140
1.0
141
40.0
290
     0
  0
SCALE
  5
C1
102
{ACAD_REACTORS
330
B6
102
}
330
B6
100
AcDbScale
 70
     0
300
1:50
140
1.0
141
50.0
290
     0
  0
SCALE
  5
C2
102
{ACAD_REACTORS
330
B6
102
}
330
B6
100
AcDbScale
 70
     0
300
1:100
140
1.0
141
100.0
290
     0
  0
SCALE
  5
C3
102
{ACAD_REACTORS
330
B6
102
}
330
B6
100
AcDbScale
 70
     0
300
2:1
140
2.0
141
1.0
290
     0
  0
SCALE
  5
C4
102
{ACAD_REACTORS
330
B6
102
}
330
B6
100
AcDbScale
 70
     0
300
4:1
140
4.0
141
1.0
290
     0
  0
SCALE
  5
C5
102
{ACAD_REACTORS
330
B6
102
}
330
B6
100
AcDbScale
 70
     0
300
8:1
140
8.0
141
1.0
290
     0
  0
SCALE
  5
C6
102
{ACAD_REACTORS
330
B6
102
}
330
B6
100
AcDbScale
 70
     0
300
10:1
140
10.0
141
1.0
290
     0
  0
SCALE
  5
C7
102
{ACAD_REACTORS
330
B6
102
}
330
B6
100
AcDbScale
 70
     0
300
100:1
140
100.0
141
1.0
290
     0
  0
SCALE
  5
C8
102
{ACAD_REACTORS
330
B6
102
}
330
B6
100
AcDbScale
 70
     0
300
1/128" = 1'-0"
140
0.0078125
141
12.0
290
     0
  0
SCALE
  5
C9
102
{ACAD_REACTORS
330
B6
102
}
330
B6
100
AcDbScale
 70
     0
300
1/64" = 1'-0"
140
0.015625
141
12.0
290
     0
  0
SCALE
  5
CA
102
{ACAD_REACTORS
330
B6
102
}
330
B6
100
AcDbScale
 70
     0
300
1/32" = 1'-0"
140
0.03125
141
12.0
290
     0
  0
SCALE
  5
CB
102
{ACAD_REACTORS
330
B6
102
}
330
B6
100
AcDbScale
 70
     0
300
1/16" = 1'-0"
140
0.0625
141
12.0
290
     0
  0
SCALE
  5
CC
102
{ACAD_REACTORS
330
B6
102
}
330
B6
100
AcDbScale
 70
     0
300
3/32" = 1'-0"
140
0.09375
141
12.0
290
     0
  0
SCALE
  5
CD
102
{ACAD_REACTORS
330
B6
102
}
330
B6
100
AcDbScale
 70
     0
300
1/8" = 1'-0"
140
0.125
141
12.0
290
     0
  0
SCALE
  5
CE
102
{ACAD_REACTORS
330
B6
102
}
330
B6
100
AcDbScale
 70
     0
300
3/16" = 1'-0"
140
0.1875
141
12.0
290
     0
  0
SCALE
  5
CF
102
{ACAD_REACTORS
330
B6
102
}
330
B6
100
AcDbScale
 70
     0
300
1/4" = 1'-0"
140
0.25
141
12.0
290
     0
  0
SCALE
  5
D0
102
{ACAD_REACTORS
330
B6
102
}
330
B6
100
AcDbScale
 70
     0
300
3/8" = 1'-0"
140
0.375
141
12.0
290
     0
  0
SCALE
  5
D1
102
{ACAD_REACTORS
330
B6
102
}
330
B6
100
AcDbScale
 70
     0
300
1/2" = 1'-0"
140
0.5
141
12.0
290
     0
  0
SCALE
  5
D2
102
{ACAD_REACTORS
330
B6
102
}
330
B6
100
AcDbScale
 70
     0
300
3/4" = 1'-0"
140
0.75
141
12.0
290
     0
  0
SCALE
  5
D3
102
{ACAD_REACTORS
330
B6
102
}
330
B6
100
AcDbScale
 70
     0
300
1" = 1'-0"
140
1.0
141
12.0
290
     0
  0
SCALE
  5
D4
102
{ACAD_REACTORS
330
B6
102
}
330
B6
100
AcDbScale
 70
     0
300
1-1/2" = 1'-0"
140
1.5
141
12.0
290
     0
  0
SCALE
  5
D5
102
{ACAD_REACTORS
330
B6
102
}
330
B6
100
AcDbScale
 70
     0
300
3" = 1'-0"
140
3.0
141
12.0
290
     0
  0
SCALE
  5
D6
102
{ACAD_REACTORS
330
B6
102
}
330
B6
100
AcDbScale
 70
     0
300
6" = 1'-0"
140
6.0
141
12.0
290
     0
  0
SCALE
  5
D7
102
{ACAD_REACTORS
330
B6
102
}
330
B6
100
AcDbScale
 70
     0
300
1'-0" = 1'-0"
140
12.0
141
12.0
290
     0
  0
TABLESTYLE
  5
87
102
{ACAD_REACTORS
330
86
102
}
102
{ACAD_XDICTIONARY
360
31C4
102
}
330
86
100
AcDbTableStyle
  3
Standard
 70
     0
 71
     0
 40
0.06
 41
0.06
280
     0
281
     0
  7
Standard
140
0.18
170
     2
 62
     0
 63
   257
283
     0
 90
      512
 91
        0
  1

274
    -2
284
     1
 64
     0
275
    -2
285
     1
 65
     0
276
    -2
286
     1
 66
     0
277
    -2
287
     1
 67
     0
278
    -2
288
     1
 68
     0
279
    -2
289
     1
 69
     0
  7
Standard
140
0.25
170
     5
 62
     0
 63
   257
283
     0
 90
      512
 91
        0
  1

274
    -2
284
     1
 64
     0
275
    -2
285
     1
 65
     0
276
    -2
286
     1
 66
     0
277
    -2
287
     1
 67
     0
278
    -2
288
     1
 68
     0
279
    -2
289
     1
 69
     0
  7
Standard
140
0.18
170
     5
 62
     0
 63
   257
283
     0
 90
      512
 91
        0
  1

274
    -2
284
     1
 64
     0
275
    -2
285
     1
 65
     0
276
    -2
286
     1
 66
     0
277
    -2
287
     1
 67
     0
278
    -2
288
     1
 68
     0
279
    -2
289
     1
 69
     0
  0
VISUALSTYLE
  5
9F
102
{ACAD_REACTORS
330
99
102
}
330
99
100
AcDbVisualStyle
  2
2dWireframe
 70
     4
 71
     0
 72
     2
 73
     1
 90
        0
 40
-0.6
 41
-30.0
 62
     5
 63
     7
421
 16777215
 74
     1
 91
        4
 64
     7
 65
   257
 75
     1
175
     1
 42
1.0
 92
        0
 66
   257
 43
1.0
 76
     1
 77
     6
 78
     2
 67
     7
 79
     5
170
     0
171
     0
290
     0
174
     0
 93
        1
 44
0.0
173
     0
291
     0
 45
0.0
  0
VISUALSTYLE
  5
A1
102
{ACAD_REACTORS
330
99
102
}
330
99
100
AcDbVisualStyle
  2
3D Hidden
 70
     6
 71
     1
 72
     2
 73
     2
 90
        0
 40
-0.6
 41
-30.0
 62
     5
 63
     7
421
 16777215
 74
     2
 91
        2
 64
     7
 65
   257
 75
     2
175
     1
 42
40.0
 92
        0
 66
   257
 43
1.0
 76
     1
 77
     6
 78
     2
 67
     7
 79
     3
170
     0
171
     0
290
     0
174
     0
 93
        1
 44
0.0
173
     0
291
     0
 45
0.0
  0
VISUALSTYLE
  5
A0
102
{ACAD_REACTORS
330
99
102
}
330
99
100
AcDbVisualStyle
  2
3dWireframe
 70
     5
 71
     0
 72
     2
 73
     1
 90
        0
 40
-0.6
 41
-30.0
 62
     5
 63
     7
421
 16777215
 74
     1
 91
        4
 64
     7
 65
   257
 75
     1
175
     1
 42
1.0
 92
        0
 66
   257
 43
1.0
 76
     1
 77
     6
 78
     2
 67
     7
 79
     5
170
     0
171
     0
290
     0
174
     0
 93
        1
 44
0.0
173
     0
291
     0
 45
0.0
  0
VISUALSTYLE
  5
9E
102
{ACAD_REACTORS
330
99
102
}
330
99
100
AcDbVisualStyle
  2
Basic
 70
     7
 71
     1
 72
     0
 73
     1
 90
        0
 40
-0.6
 41
-30.0
 62
     5
 63
     7
421
 16777215
 74
     0
 91
        4
 64
     7
 65
   257
 75
     1
175
     1
 42
1.0
 92
        8
 66
     7
 43
1.0
 76
     1
 77
     6
 78
     2
 67
     7
 79
     5
170
     0
171
     0
290
     0
174
     0
 93
        1
 44
0.0
173
     0
291
     1
 45
0.0
  0
VISUALSTYLE
  5
A5
102
{ACAD_REACTORS
330
99
102
}
330
99
100
AcDbVisualStyle
  2
Brighten
 70
    12
 71
     2
 72
     2
 73
     1
 90
        0
 40
-0.6
 41
-30.0
 62
     5
 63
     7
421
 16777215
 74
     1
 91
        4
 64
     7
 65
   257
 75
     1
175
     1
 42
1.0
 92
        8
 66
     7
 43
1.0
 76
     1
 77
     6
 78
     2
 67
     7
 79
     5
170
     0
171
     0
290
     0
174
     0
 93
        1
 44
50.0
173
     0
291
     1
 45
0.0
  0
VISUALSTYLE
  5
A9
102
{ACAD_REACTORS
330
99
102
}
330
99
100
AcDbVisualStyle
  2
ColorChange
 70
    16
 71
     2
 72
     2
 73
     3
 90
        0
 40
-0.6
 41
-30.0
 62
     5
 63
     8
421
  8421504
 74
     1
 91
        4
 64
     7
 65
   257
 75
     1
175
     1
 42
1.0
 92
        8
 66
     8
424
  8421504
 43
1.0
 76
     1
 77
     6
 78
     2
 67
     7
 79
     5
170
     0
171
     0
290
     0
174
     0
 93
        1
 44
0.0
173
     0
291
     1
 45
0.0
  0
VISUALSTYLE
  5
A2
102
{ACAD_REACTORS
330
99
102
}
330
99
100
AcDbVisualStyle
  2
Conceptual
 70
     9
 71
     3
 72
     2
 73
     1
 90
        0
 40
-0.6
 41
-30.0
 62
     5
 63
     7
421
 16777215
 74
     2
 91
        2
 64
     7
 65
   257
 75
     1
175
     1
 42
40.0
 92
        8
 66
     7
 43
1.0
 76
     1
 77
     6
 78
     2
 67
     7
 79
     3
170
     0
171
     0
290
     0
174
     0
 93
        1
 44
0.0
173
     0
291
     0
 45
0.0
  0
VISUALSTYLE
  5
A4
102
{ACAD_REACTORS
330
99
102
}
330
99
100
AcDbVisualStyle
  2
Dim
 70
    11
 71
     2
 72
     2
 73
     1
 90
        0
 40
-0.6
 41
-30.0
 62
     5
 63
     7
421
 16777215
 74
     1
 91
        4
 64
     7
 65
   257
 75
     1
175
     1
 42
1.0
 92
        8
 66
     7
 43
1.0
 76
     1
 77
     6
 78
     2
 67
     7
 79
     5
170
     0
171
     0
290
     0
174
     0
 93
        1
 44
-50.0
173
     0
291
     1
 45
0.0
  0
VISUALSTYLE
  5
E7
102
{ACAD_REACTORS
330
99
102
}
330
99
100
AcDbVisualStyle
  2
EdgeColorOff
 70
    22
 71
     2
 72
     2
 73
     0
 90
        0
 40
0.6
 41
30.0
 62
     5
 63
     7
421
 16777215
 74
     1
 91
        4
 64
     7
 65
   257
 75
     1
175
     1
 42
1.0
 92
        8
 66
     7
 43
1.0
 76
     1
 77
     6
 78
     2
 67
     7
 79
     5
170
     0
171
     0
290
     0
174
     0
 93
        1
 44
0.0
173
     0
291
     1
 45
0.0
  0
VISUALSTYLE
  5
A8
102
{ACAD_REACTORS
330
99
102
}
330
99
100
AcDbVisualStyle
  2
Facepattern
 70
    15
 71
     2
 72
     2
 73
     1
 90
        0
 40
-0.6
 41
-30.0
 62
     5
 63
     7
421
 16777215
 74
     1
 91
        4
 64
     7
 65
   257
 75
     1
175
     1
 42
1.0
 92
        8
 66
     7
 43
1.0
 76
     1
 77
     6
 78
     2
 67
     7
 79
     5
170
     0
171
     0
290
     0
174
     0
 93
        1
 44
0.0
173
     0
291
     1
 45
0.0
  0
VISUALSTYLE
  5
9A
102
{ACAD_REACTORS
330
99
102
}
330
99
100
AcDbVisualStyle
  2
Flat
 70
     0
 71
     2
 72
     1
 73
     1
 90
        2
 40
-0.6
 41
30.0
 62
     5
 63
     7
421
 16777215
 74
     0
 91
        4
 64
     7
 65
   257
 75
     1
175
     1
 42
1.0
 92
        8
 66
     7
 43
1.0
 76
     1
 77
     6
 78
     2
 67
     7
 79
     5
170
     0
171
     0
290
     0
174
     0
 93
        1
 44
0.0
173
     0
291
     1
 45
0.0
  0
VISUALSTYLE
  5
9B
102
{ACAD_REACTORS
330
99
102
}
330
99
100
AcDbVisualStyle
  2
FlatWithEdges
 70
     1
 71
     2
 72
     1
 73
     1
 90
        2
 40
-0.6
 41
30.0
 62
     5
 63
     7
421
 16777215
 74
     1
 91
        4
 64
     7
 65
   257
 75
     1
175
     1
 42
1.0
 92
        0
 66
   257
 43
1.0
 76
     1
 77
     6
 78
     2
 67
     7
 79
     5
170
     0
171
     0
290
     0
174
     0
 93
        1
 44
0.0
173
     0
291
     1
 45
0.0
  0
VISUALSTYLE
  5
9C
102
{ACAD_REACTORS
330
99
102
}
330
99
100
AcDbVisualStyle
  2
Gouraud
 70
     2
 71
     2
 72
     2
 73
     1
 90
        2
 40
-0.6
 41
30.0
 62
     5
 63
     7
421
 16777215
 74
     0
 91
        4
 64
     7
 65
   257
 75
     1
175
     1
 42
1.0
 92
        0
 66
     7
 43
1.0
 76
     1
 77
     6
 78
     2
 67
     7
 79
     5
170
     0
171
     0
290
     0
174
     0
 93
        1
 44
0.0
173
     0
291
     1
 45
0.0
  0
VISUALSTYLE
  5
9D
102
{ACAD_REACTORS
330
99
102
}
330
99
100
AcDbVisualStyle
  2
GouraudWithEdges
 70
     3
 71
     2
 72
     2
 73
     1
 90
        2
 40
-0.6
 41
30.0
 62
     5
 63
     7
421
 16777215
 74
     1
 91
        4
 64
     7
 65
   257
 75
     1
175
     1
 42
1.0
 92
        0
 66
   257
 43
1.0
 76
     1
 77
     6
 78
     2
 67
     7
 79
     5
170
     0
171
     0
290
     0
174
     0
 93
        1
 44
0.0
173
     0
291
     1
 45
0.0
  0
VISUALSTYLE
  5
E4
102
{ACAD_REACTORS
330
99
102
}
330
99
100
AcDbVisualStyle
  2
Hidden
 70
     6
 71
     1
 72
     2
 73
     2
 90
        0
 40
0.6
 41
30.0
 62
     5
 63
     7
421
 16777215
 74
     2
 91
        2
 64
     7
 65
   257
 75
     2
175
     1
 42
40.0
 92
        0
 66
   257
 43
1.0
 76
     1
 77
     6
 78
     2
 67
     7
 79
     3
170
     0
171
     0
290
     0
174
     0
 93
        1
 44
0.0
173
     0
291
     0
 45
0.0
  0
VISUALSTYLE
  5
E5
102
{ACAD_REACTORS
330
99
102
}
330
99
100
AcDbVisualStyle
  2
JitterOff
 70
    20
 71
     2
 72
     2
 73
     0
 90
        0
 40
0.6
 41
30.0
 62
     5
 63
     7
421
 16777215
 74
     1
 91
        4
 64
     7
 65
   257
 75
     1
175
     1
 42
1.0
 92
       10
 66
     7
 43
1.0
 76
     1
 77
     6
 78
     2
 67
     7
 79
     5
170
     0
171
     0
290
     0
174
     0
 93
        1
 44
0.0
173
     0
291
     1
 45
0.0
  0
VISUALSTYLE
  5
A7
102
{ACAD_REACTORS
330
99
102
}
330
99
100
AcDbVisualStyle
  2
Linepattern
 70
    14
 71
     2
 72
     2
 73
     1
 90
        0
 40
-0.6
 41
-30.0
 62
     5
 63
     7
421
 16777215
 74
     1
 91
        4
 64
     7
 65
   257
 75
     7
175
     7
 42
1.0
 92
        8
 66
     7
 43
1.0
 76
     1
 77
     6
 78
     2
 67
     7
 79
     5
170
     0
171
     0
290
     0
174
     0
 93
        1
 44
0.0
173
     0
291
     1
 45
0.0
  0
VISUALSTYLE
  5
E6
102
{ACAD_REACTORS
330
99
102
}
330
99
100
AcDbVisualStyle
  2
OverhangOff
 70
    21
 71
     2
 72
     2
 73
     0
 90
        0
 40
0.6
 41
30.0
 62
     5
 63
     7
421
 16777215
 74
     1
 91
        4
 64
     7
 65
   257
 75
     1
175
     1
 42
1.0
 92
        9
 66
     7
 43
1.0
 76
     1
 77
     6
 78
     2
 67
     7
 79
     5
170
     0
171
     0
290
     0
174
     0
 93
        1
 44
0.0
173
     0
291
     1
 45
0.0
  0
VISUALSTYLE
  5
A3
102
{ACAD_REACTORS
330
99
102
}
330
99
100
AcDbVisualStyle
  2
Realistic
 70
     8
 71
     2
 72
     2
 73
     1
 90
        0
 40
-0.6
 41
-30.0
 62
     5
 63
     7
421
 16777215
 74
     1
 91
        0
 64
     7
 65
   257
 75
     1
175
     1
 42
1.0
 92
        8
 66
     8
424
  7895160
 43
1.0
 76
     1
 77
     6
 78
     2
 67
     7
 79
     5
170
     0
171
     0
290
     0
174
     0
 93
       13
 44
0.0
173
     0
291
     0
 45
0.0
  0
VISUALSTYLE
  5
EC
102
{ACAD_REACTORS
330
99
102
}
330
99
100
AcDbVisualStyle
  2
Shaded
 70
    27
 71
     2
 72
     2
 73
     1
 90
        2
 40
0.6
 41
30.0
 62
     5
 63
     7
421
 16777215
 74
     0
 91
        4
 64
     7
 65
   257
 75
     1
175
     1
 42
1.0
 92
        8
 66
   257
 43
1.0
 76
     1
 77
     6
 78
     2
 67
     8
425
  7895160
 79
     3
170
     0
171
     0
290
     0
174
     0
 93
        5
 44
0.0
173
     0
291
     0
 45
0.0
  0
VISUALSTYLE
  5
EB
102
{ACAD_REACTORS
330
99
102
}
330
99
100
AcDbVisualStyle
  2
Shaded with edges
 70
    26
 71
     2
 72
     2
 73
     1
 90
        2
 40
0.6
 41
30.0
 62
     5
 63
     7
421
 16777215
 74
     1
 91
       10
 64
     7
 65
   257
 75
     2
175
     1
 42
1.0
 92
        8
 66
   257
 43
1.0
 76
     1
 77
     6
 78
     2
 67
     7
 79
     3
170
     0
171
     0
290
     0
174
     0
 93
        5
 44
0.0
173
     0
291
     0
 45
0.0
  0
VISUALSTYLE
  5
E8
102
{ACAD_REACTORS
330
99
102
}
330
99
100
AcDbVisualStyle
  2
Shades of Gray
 70
    23
 71
     2
 72
     2
 73
     3
 90
        0
 40
0.6
 41
30.0
 62
     5
 63
     7
421
 16777215
 74
     2
 91
        2
 64
     7
 65
     7
 75
     1
175
     1
 42
40.0
 92
        8
 66
     7
 43
1.0
 76
     1
 77
     6
 78
     2
 67
     7
 79
     3
170
     0
171
     0
290
     0
174
     0
 93
        1
 44
0.0
173
     0
291
     0
 45
0.0
  0
VISUALSTYLE
  5
E9
102
{ACAD_REACTORS
330
99
102
}
330
99
100
AcDbVisualStyle
  2
Sketchy
 70
    24
 71
     1
 72
     2
 73
     2
 90
        0
 40
0.6
 41
30.0
 62
     5
 63
     7
421
 16777215
 74
     2
 91
        2
 64
     7
 65
     7
 75
     1
175
     1
 42
40.0
 92
       11
 66
     7
 43
1.0
 76
     1
 77
     6
 78
     2
 67
     7
 79
     6
170
     0
171
     0
290
     0
174
     0
 93
        1
 44
0.0
173
     0
291
     0
 45
0.0
  0
VISUALSTYLE
  5
A6
102
{ACAD_REACTORS
330
99
102
}
330
99
100
AcDbVisualStyle
  2
Thicken
 70
    13
 71
     2
 72
     2
 73
     1
 90
        0
 40
-0.6
 41
-30.0
 62
     5
 63
     7
421
 16777215
 74
     1
 91
        4
 64
     7
 65
   257
 75
     1
175
     1
 42
1.0
 92
       12
 66
     7
 43
1.0
 76
     1
 77
     6
 78
     2
 67
     7
 79
     5
170
     0
171
     0
290
     0
174
     0
 93
        1
 44
0.0
173
     0
291
     1
 45
0.0
  0
VISUALSTYLE
  5
E3
102
{ACAD_REACTORS
330
99
102
}
330
99
100
AcDbVisualStyle
  2
Wireframe
 70
     5
 71
     0
 72
     2
 73
     0
 90
        0
 40
0.6
 41
30.0
 62
     5
 63
     7
421
 16777215
 74
     1
 91
        4
 64
     7
 65
   257
 75
     1
175
     1
 42
1.0
 92
        0
 66
   257
 43
1.0
 76
     1
 77
     6
 78
     2
 67
     7
 79
     3
170
     0
171
     0
290
     0
174
     0
 93
        1
 44
0.0
173
     0
291
     0
 45
0.0
  0
VISUALSTYLE
  5
EA
102
{ACAD_REACTORS
330
99
102
}
330
99
100
AcDbVisualStyle
  2
X-Ray
 70
    25
 71
     2
 72
     2
 73
     1
 90
        1
 40
0.5
 41
30.0
 62
     5
 63
     7
421
 16777215
 74
     1
 91
        0
 64
     7
 65
   257
 75
     1
175
     1
 42
1.0
 92
        8
 66
     7
 43
1.0
 76
     1
 77
     6
 78
     2
 67
     7
 79
     3
170
     0
171
     0
290
     0
174
     0
 93
       13
 44
0.0
173
     0
291
     0
 45
0.0
  0
DICTIONARYVAR
  5
D8
102
{ACAD_REACTORS
330
66
102
}
330
66
100
DictionaryVariables
280
     0
  1
1:1
  0
DICTIONARYVAR
  5
103
102
{ACAD_REACTORS
330
66
102
}
330
66
100
DictionaryVariables
280
     0
  1
Standard
  0
DICTIONARYVAR
  5
89
102
{ACAD_REACTORS
330
66
102
}
330
66
100
DictionaryVariables
280
     0
  1
Standard
  0
DICTIONARYVAR
  5
67
102
{ACAD_REACTORS
330
66
102
}
330
66
100
DictionaryVariables
280
     0
  1
2
  0
DICTIONARYVAR
  5
6B
102
{ACAD_REACTORS
330
66
102
}
330
66
100
DictionaryVariables
280
     0
  1
1
  0
DICTIONARYVAR
  5
119
102
{ACAD_REACTORS
330
66
102
}
330
66
100
DictionaryVariables
280
     0
  1
ByLayer
  0
DICTIONARYVAR
  5
DF
102
{ACAD_REACTORS
330
66
102
}
330
66
100
DictionaryVariables
280
     0
  1
0
  0
DICTIONARYVAR
  5
E0
102
{ACAD_REACTORS
330
66
102
}
330
66
100
DictionaryVariables
280
     0
  1
0
  0
XRECORD
  5
142E
102
{ACAD_REACTORS
330
4BF
102
}
330
4BF
100
AcDbXrecord
280
     1
 91
     1023
301

290
     0
302
CenterTriangleSupport
330
10
 90
        8
 62
     7
370
    -3
331
16
  1
Color_7
330
46B
 90
        8
 62
     3
370
    -3
331
16
  1
Color_3
330
0
 90
        8
 62
     4
370
    -3
331
16
  1
Color_4
330
46F
 90
        9
 62
     7
370
    -3
331
16
  1
Color_7
330
470
 90
        8
 62
     7
370
    -3
331
16
  1
Color_7
330
0
 90
        8
 62
     5
370
    -3
331
16
  1
Color_5
330
0
 90
        8
 62
     3
370
    -3
331
16
  1
Color_3
330
11BA
 90
        8
 62
     5
370
    -3
331
16
  1
Color_5
330
1230
 90
        8
 62
     6
370
    -3
331
16
  1
Color_6
330
123A
 90
        8
 62
     5
370
    -3
331
16
  1
Color_5
330
123B
 90
        8
 62
     4
370
    -3
331
16
  1
Color_4
330
1243
 90
        8
 62
     4
370
    -3
331
16
  1
Color_4
330
0
 90
        8
 62
     7
370
    -3
331
16
  1
Color_7
330
1340
 90
        8
 62
    43
370
    -3
331
16
  1
Color_43
330
0
 90
        8
 62
     4
370
    -3
331
16
  1
Color_4
330
13A2
 90
        8
 62
     5
370
    -3
331
16
  1
Color_5
330
0
 90
        8
 62
     1
370
    -3
331
16
  1
Color_1
330
13CF
 90
        8
 62
     5
370
    -3
331
16
  1
Color_5
  0
XRECORD
  5
2872
102
{ACAD_REACTORS
330
4BF
102
}
330
4BF
100
AcDbXrecord
280
     1
 91
     1023
301

290
     0
302
BottomFrame
330
10
 90
        8
 62
     7
370
    -3
331
16
  1
Color_7
330
46B
 90
        8
 62
     3
370
    -3
331
16
  1
Color_3
330
0
 90
        8
 62
     4
370
    -3
331
16
  1
Color_4
330
46F
 90
        9
 62
     7
370
    -3
331
16
  1
Color_7
330
470
 90
        8
 62
     7
370
    -3
331
16
  1
Color_7
330
0
 90
        8
 62
     5
370
    -3
331
16
  1
Color_5
330
0
 90
        8
 62
     3
370
    -3
331
16
  1
Color_3
330
11BA
 90
        8
 62
     5
370
    -3
331
16
  1
Color_5
330
1230
 90
        8
 62
     6
370
    -3
331
16
  1
Color_6
330
123A
 90
        8
 62
     5
370
    -3
331
16
  1
Color_5
330
123B
 90
        8
 62
     4
370
    -3
331
16
  1
Color_4
330
1243
 90
        8
 62
     4
370
    -3
331
16
  1
Color_4
330
0
 90
        8
 62
     7
370
    -3
331
16
  1
Color_7
330
1340
 90
        8
 62
    43
370
    -3
331
16
  1
Color_43
330
0
 90
        8
 62
     4
370
    -3
331
16
  1
Color_4
330
13A2
 90
        8
 62
     5
370
    -3
331
16
  1
Color_5
330
0
 90
        8
 62
     1
370
    -3
331
16
  1
Color_1
330
13CF
 90
        8
 62
     5
370
    -3
331
16
  1
Color_5
330
142F
 90
        8
 62
     2
370
    -3
331
16
  1
Color_2
330
1714
 90
        8
 62
    70
370
    -3
331
16
  1
Color_70
330
0
 90
        0
 62
     7
370
    -3
331
16
  1
Color_7
  0
XRECORD
  5
27D7
102
{ACAD_REACTORS
330
4BF
102
}
330
4BF
100
AcDbXrecord
280
     1
 91
     1023
301

290
     0
302
FemaleFrame
330
10
 90
        8
 62
     7
370
    -3
331
16
  1
Color_7
330
46B
 90
        8
 62
     3
370
    -3
331
16
  1
Color_3
330
46F
 90
        8
 62
     7
370
    -3
331
16
  1
Color_7
330
470
 90
        8
 62
     7
370
    -3
331
16
  1
Color_7
330
11BA
 90
        8
 62
     5
370
    -3
331
16
  1
Color_5
330
1230
 90
        8
 62
     6
370
    -3
331
16
  1
Color_6
330
123A
 90
        8
 62
     5
370
    -3
331
16
  1
Color_5
330
123B
 90
        8
 62
     4
370
    -3
331
16
  1
Color_4
330
1243
 90
        8
 62
     4
370
    -3
331
16
  1
Color_4
330
1340
 90
        8
 62
    43
370
    -3
331
16
  1
Color_43
330
13A2
 90
        8
 62
     5
370
    -3
331
16
  1
Color_5
330
13CF
 90
        8
 62
     5
370
    -3
331
16
  1
Color_5
330
142F
 90
        8
 62
     2
370
    -3
331
16
  1
Color_2
330
1714
 90
        8
 62
    70
370
    -3
331
16
  1
Color_70
330
2975
 90
        8
 62
    21
370
    -3
331
16
  1
Color_21
330
0
 90
        0
 62
     7
370
    -3
331
16
  1
Color_7
  0
DICTIONARY
  5
31C4
330
87
100
AcDbDictionary
280
     1
281
     1
  3
ACAD_ROUNDTRIP_2008_TABLESTYLE_CELLSTYLEMAP
360
31C5
  0
CELLSTYLEMAP
  5
31C5
102
{ACAD_REACTORS
330
31C4
102
}
330
31C4
100
AcDbCellStyleMap
 90
        3
300
CELLSTYLE
  1
TABLEFORMAT_BEGIN
 90
        5
170
     1
 91
        0
 92
    32768
 62
   257
 93
        1
300
CONTENTFORMAT
  1
CONTENTFORMAT_BEGIN
 90
        0
 91
        0
 92
      512
 93
        0
300

 40
0.0
140
1.0
 94
        5
 62
     0
340
11
144
0.25
309
CONTENTFORMAT_END
171
     0
 94
        6
 95
        1
302
GRIDFORMAT
  1
GRIDFORMAT_BEGIN
 90
        0
 91
        1
 62
     0
 92
       -2
340
0
 93
        0
 40
0.045
309
GRIDFORMAT_END
 95
        2
302
GRIDFORMAT
  1
GRIDFORMAT_BEGIN
 90
        0
 91
        1
 62
     0
 92
       -2
340
0
 93
        0
 40
0.045
309
GRIDFORMAT_END
 95
        4
302
GRIDFORMAT
  1
GRIDFORMAT_BEGIN
 90
        0
 91
        1
 62
     0
 92
       -2
340
0
 93
        0
 40
0.045
309
GRIDFORMAT_END
 95
        8
302
GRIDFORMAT
  1
GRIDFORMAT_BEGIN
 90
        0
 91
        1
 62
     0
 92
       -2
340
0
 93
        0
 40
0.045
309
GRIDFORMAT_END
 95
       16
302
GRIDFORMAT
  1
GRIDFORMAT_BEGIN
 90
        0
 91
        1
 62
     0
 92
       -2
340
0
 93
        0
 40
0.045
309
GRIDFORMAT_END
 95
       32
302
GRIDFORMAT
  1
GRIDFORMAT_BEGIN
 90
        0
 91
        1
 62
     0
 92
       -2
340
0
 93
        0
 40
0.045
309
GRIDFORMAT_END
309
TABLEFORMAT_END
  1
CELLSTYLE_BEGIN
 90
        1
 91
        1
300
_TITLE
309
CELLSTYLE_END
300
CELLSTYLE
  1
TABLEFORMAT_BEGIN
 90
        5
170
     1
 91
        0
 92
        0
 62
   257
 93
        1
300
CONTENTFORMAT
  1
CONTENTFORMAT_BEGIN
 90
        0
 91
        0
 92
      512
 93
        0
300

 40
0.0
140
1.0
 94
        5
 62
     0
340
11
144
0.18
309
CONTENTFORMAT_END
171
     0
 94
        6
 95
        1
302
GRIDFORMAT
  1
GRIDFORMAT_BEGIN
 90
        0
 91
        1
 62
     0
 92
       -2
340
0
 93
        0
 40
0.045
309
GRIDFORMAT_END
 95
        2
302
GRIDFORMAT
  1
GRIDFORMAT_BEGIN
 90
        0
 91
        1
 62
     0
 92
       -2
340
0
 93
        0
 40
0.045
309
GRIDFORMAT_END
 95
        4
302
GRIDFORMAT
  1
GRIDFORMAT_BEGIN
 90
        0
 91
        1
 62
     0
 92
       -2
340
0
 93
        0
 40
0.045
309
GRIDFORMAT_END
 95
        8
302
GRIDFORMAT
  1
GRIDFORMAT_BEGIN
 90
        0
 91
        1
 62
     0
 92
       -2
340
0
 93
        0
 40
0.045
309
GRIDFORMAT_END
 95
       16
302
GRIDFORMAT
  1
GRIDFORMAT_BEGIN
 90
        0
 91
        1
 62
     0
 92
       -2
340
0
 93
        0
 40
0.045
309
GRIDFORMAT_END
 95
       32
302
GRIDFORMAT
  1
GRIDFORMAT_BEGIN
 90
        0
 91
        1
 62
     0
 92
       -2
340
0
 93
        0
 40
0.045
309
GRIDFORMAT_END
309
TABLEFORMAT_END
  1
CELLSTYLE_BEGIN
 90
        2
 91
        1
300
_HEADER
309
CELLSTYLE_END
300
CELLSTYLE
  1
TABLEFORMAT_BEGIN
 90
        5
170
     1
 91
        0
 92
        0
 62
   257
 93
        1
300
CONTENTFORMAT
  1
CONTENTFORMAT_BEGIN
 90
        0
 91
        0
 92
      512
 93
        0
300

 40
0.0
140
1.0
 94
        2
 62
     0
340
11
144
0.18
309
CONTENTFORMAT_END
171
     0
 94
        6
 95
        1
302
GRIDFORMAT
  1
GRIDFORMAT_BEGIN
 90
        0
 91
        1
 62
     0
 92
       -2
340
0
 93
        0
 40
0.045
309
GRIDFORMAT_END
 95
        2
302
GRIDFORMAT
  1
GRIDFORMAT_BEGIN
 90
        0
 91
        1
 62
     0
 92
       -2
340
0
 93
        0
 40
0.045
309
GRIDFORMAT_END
 95
        4
302
GRIDFORMAT
  1
GRIDFORMAT_BEGIN
 90
        0
 91
        1
 62
     0
 92
       -2
340
0
 93
        0
 40
0.045
309
GRIDFORMAT_END
 95
        8
302
GRIDFORMAT
  1
GRIDFORMAT_BEGIN
 90
        0
 91
        1
 62
     0
 92
       -2
340
0
 93
        0
 40
0.045
309
GRIDFORMAT_END
 95
       16
302
GRIDFORMAT
  1
GRIDFORMAT_BEGIN
 90
        0
 91
        1
 62
     0
 92
       -2
340
0
 93
        0
 40
0.045
309
GRIDFORMAT_END
 95
       32
302
GRIDFORMAT
  1
GRIDFORMAT_BEGIN
 90
        0
 91
        1
 62
     0
 92
       -2
340
0
 93
        0
 40
0.045
309
GRIDFORMAT_END
309
TABLEFORMAT_END
  1
CELLSTYLE_BEGIN
 90
        3
 91
        2
300
_DATA
309
CELLSTYLE_END
  0
ENDSEC
  0
EOF
